<mxfile host="65bd71144e" pages="5">
    <diagram id="UBIML3pQqiDEn2vD6msV" name="list histories">
        <mxGraphModel dx="1129" dy="647" grid="1" gridSize="10" guides="1" tooltips="1" connect="1" arrows="1" fold="1" page="1" pageScale="1" pageWidth="850" pageHeight="1100" math="0" shadow="0">
            <root>
                <mxCell id="0"/>
                <mxCell id="1" parent="0"/>
                <mxCell id="452W0jWJVssh9XhGpuLI-1" value="" style="edgeStyle=orthogonalEdgeStyle;rounded=0;orthogonalLoop=1;jettySize=auto;html=1;" parent="1" source="452W0jWJVssh9XhGpuLI-2" target="452W0jWJVssh9XhGpuLI-4" edge="1">
                    <mxGeometry relative="1" as="geometry"/>
                </mxCell>
                <mxCell id="452W0jWJVssh9XhGpuLI-2" value="START" style="ellipse;whiteSpace=wrap;html=1;" parent="1" vertex="1">
                    <mxGeometry x="485" y="80" width="120" height="80" as="geometry"/>
                </mxCell>
                <mxCell id="452W0jWJVssh9XhGpuLI-3" value="" style="edgeStyle=orthogonalEdgeStyle;rounded=0;orthogonalLoop=1;jettySize=auto;html=1;" parent="1" source="452W0jWJVssh9XhGpuLI-4" target="452W0jWJVssh9XhGpuLI-8" edge="1">
                    <mxGeometry relative="1" as="geometry"/>
                </mxCell>
                <mxCell id="452W0jWJVssh9XhGpuLI-4" value="seacrh&lt;br&gt;page&lt;br&gt;limit" style="shape=parallelogram;perimeter=parallelogramPerimeter;whiteSpace=wrap;html=1;fixedSize=1;" parent="1" vertex="1">
                    <mxGeometry x="485" y="220" width="120" height="60" as="geometry"/>
                </mxCell>
                <mxCell id="452W0jWJVssh9XhGpuLI-5" value="TRUE" style="edgeStyle=orthogonalEdgeStyle;rounded=0;orthogonalLoop=1;jettySize=auto;html=1;" parent="1" source="452W0jWJVssh9XhGpuLI-8" target="452W0jWJVssh9XhGpuLI-9" edge="1">
                    <mxGeometry relative="1" as="geometry"/>
                </mxCell>
                <mxCell id="452W0jWJVssh9XhGpuLI-6" value="FALSE" style="edgeStyle=orthogonalEdgeStyle;rounded=0;orthogonalLoop=1;jettySize=auto;html=1;" parent="1" source="452W0jWJVssh9XhGpuLI-8" target="452W0jWJVssh9XhGpuLI-10" edge="1">
                    <mxGeometry relative="1" as="geometry"/>
                </mxCell>
                <mxCell id="452W0jWJVssh9XhGpuLI-7" value="" style="edgeStyle=orthogonalEdgeStyle;rounded=0;orthogonalLoop=1;jettySize=auto;html=1;" parent="1" source="452W0jWJVssh9XhGpuLI-8" target="452W0jWJVssh9XhGpuLI-14" edge="1">
                    <mxGeometry relative="1" as="geometry"/>
                </mxCell>
                <mxCell id="452W0jWJVssh9XhGpuLI-8" value="search" style="rhombus;whiteSpace=wrap;html=1;" parent="1" vertex="1">
                    <mxGeometry x="505" y="330" width="80" height="80" as="geometry"/>
                </mxCell>
                <mxCell id="452W0jWJVssh9XhGpuLI-9" value="search = search" style="rounded=0;whiteSpace=wrap;html=1;" parent="1" vertex="1">
                    <mxGeometry x="675" y="340" width="120" height="60" as="geometry"/>
                </mxCell>
                <mxCell id="452W0jWJVssh9XhGpuLI-10" value="search = &quot;&quot;" style="rounded=0;whiteSpace=wrap;html=1;" parent="1" vertex="1">
                    <mxGeometry x="285" y="340" width="120" height="60" as="geometry"/>
                </mxCell>
                <mxCell id="452W0jWJVssh9XhGpuLI-11" value="TRUE" style="edgeStyle=orthogonalEdgeStyle;rounded=0;orthogonalLoop=1;jettySize=auto;html=1;" parent="1" source="452W0jWJVssh9XhGpuLI-14" target="452W0jWJVssh9XhGpuLI-15" edge="1">
                    <mxGeometry relative="1" as="geometry"/>
                </mxCell>
                <mxCell id="452W0jWJVssh9XhGpuLI-12" value="FALSE" style="edgeStyle=orthogonalEdgeStyle;rounded=0;orthogonalLoop=1;jettySize=auto;html=1;" parent="1" source="452W0jWJVssh9XhGpuLI-14" target="452W0jWJVssh9XhGpuLI-16" edge="1">
                    <mxGeometry relative="1" as="geometry"/>
                </mxCell>
                <mxCell id="452W0jWJVssh9XhGpuLI-13" value="" style="edgeStyle=orthogonalEdgeStyle;rounded=0;orthogonalLoop=1;jettySize=auto;html=1;" parent="1" source="452W0jWJVssh9XhGpuLI-14" target="452W0jWJVssh9XhGpuLI-20" edge="1">
                    <mxGeometry relative="1" as="geometry"/>
                </mxCell>
                <mxCell id="452W0jWJVssh9XhGpuLI-14" value="page" style="rhombus;whiteSpace=wrap;html=1;" parent="1" vertex="1">
                    <mxGeometry x="505" y="440" width="80" height="80" as="geometry"/>
                </mxCell>
                <mxCell id="452W0jWJVssh9XhGpuLI-15" value="page = PARSEINT(page)" style="rounded=0;whiteSpace=wrap;html=1;" parent="1" vertex="1">
                    <mxGeometry x="675" y="450" width="150" height="60" as="geometry"/>
                </mxCell>
                <mxCell id="452W0jWJVssh9XhGpuLI-16" value="page = 1" style="rounded=0;whiteSpace=wrap;html=1;" parent="1" vertex="1">
                    <mxGeometry x="285" y="450" width="120" height="60" as="geometry"/>
                </mxCell>
                <mxCell id="452W0jWJVssh9XhGpuLI-17" value="TRUE" style="edgeStyle=orthogonalEdgeStyle;rounded=0;orthogonalLoop=1;jettySize=auto;html=1;" parent="1" source="452W0jWJVssh9XhGpuLI-20" target="452W0jWJVssh9XhGpuLI-21" edge="1">
                    <mxGeometry relative="1" as="geometry"/>
                </mxCell>
                <mxCell id="452W0jWJVssh9XhGpuLI-18" value="FALSE" style="edgeStyle=orthogonalEdgeStyle;rounded=0;orthogonalLoop=1;jettySize=auto;html=1;" parent="1" source="452W0jWJVssh9XhGpuLI-20" target="452W0jWJVssh9XhGpuLI-22" edge="1">
                    <mxGeometry relative="1" as="geometry"/>
                </mxCell>
                <mxCell id="452W0jWJVssh9XhGpuLI-19" value="" style="edgeStyle=orthogonalEdgeStyle;rounded=0;orthogonalLoop=1;jettySize=auto;html=1;" parent="1" source="452W0jWJVssh9XhGpuLI-20" target="452W0jWJVssh9XhGpuLI-24" edge="1">
                    <mxGeometry relative="1" as="geometry"/>
                </mxCell>
                <mxCell id="452W0jWJVssh9XhGpuLI-20" value="limit" style="rhombus;whiteSpace=wrap;html=1;" parent="1" vertex="1">
                    <mxGeometry x="505" y="560" width="80" height="80" as="geometry"/>
                </mxCell>
                <mxCell id="452W0jWJVssh9XhGpuLI-21" value="limit = PARSEINT(limit)" style="rounded=0;whiteSpace=wrap;html=1;" parent="1" vertex="1">
                    <mxGeometry x="675" y="570" width="120" height="60" as="geometry"/>
                </mxCell>
                <mxCell id="452W0jWJVssh9XhGpuLI-22" value="limit = 5" style="rounded=0;whiteSpace=wrap;html=1;" parent="1" vertex="1">
                    <mxGeometry x="285" y="570" width="120" height="60" as="geometry"/>
                </mxCell>
                <mxCell id="452W0jWJVssh9XhGpuLI-23" value="" style="edgeStyle=orthogonalEdgeStyle;rounded=0;orthogonalLoop=1;jettySize=auto;html=1;" parent="1" source="452W0jWJVssh9XhGpuLI-24" target="452W0jWJVssh9XhGpuLI-27" edge="1">
                    <mxGeometry relative="1" as="geometry"/>
                </mxCell>
                <mxCell id="452W0jWJVssh9XhGpuLI-24" value="offset&amp;nbsp; = (page -1) * limit&lt;br&gt;data = {search, limit, offset}" style="rounded=0;whiteSpace=wrap;html=1;" parent="1" vertex="1">
                    <mxGeometry x="450" y="680" width="190" height="60" as="geometry"/>
                </mxCell>
                <mxCell id="452W0jWJVssh9XhGpuLI-25" value="" style="edgeStyle=orthogonalEdgeStyle;rounded=0;orthogonalLoop=1;jettySize=auto;html=1;fontSize=12;" parent="1" source="452W0jWJVssh9XhGpuLI-27" target="452W0jWJVssh9XhGpuLI-28" edge="1">
                    <mxGeometry relative="1" as="geometry"/>
                </mxCell>
                <mxCell id="452W0jWJVssh9XhGpuLI-26" value="" style="edgeStyle=orthogonalEdgeStyle;rounded=0;orthogonalLoop=1;jettySize=auto;html=1;fontSize=12;" parent="1" target="452W0jWJVssh9XhGpuLI-31" edge="1">
                    <mxGeometry relative="1" as="geometry">
                        <mxPoint x="543.7499999999998" y="990" as="sourcePoint"/>
                    </mxGeometry>
                </mxCell>
                <mxCell id="452W0jWJVssh9XhGpuLI-27" value="MODEL&lt;br&gt;histories.getHistories(data, results)" style="rounded=0;whiteSpace=wrap;html=1;" parent="1" vertex="1">
                    <mxGeometry x="425" y="790" width="240" height="60" as="geometry"/>
                </mxCell>
                <mxCell id="452W0jWJVssh9XhGpuLI-28" value="rent_vehicles" style="shape=cylinder3;whiteSpace=wrap;html=1;boundedLbl=1;backgroundOutline=1;size=15;" parent="1" vertex="1">
                    <mxGeometry x="500" y="910" width="90" height="80" as="geometry"/>
                </mxCell>
                <mxCell id="452W0jWJVssh9XhGpuLI-29" value="FALSE" style="edgeStyle=orthogonalEdgeStyle;rounded=0;orthogonalLoop=1;jettySize=auto;html=1;" parent="1" source="452W0jWJVssh9XhGpuLI-31" target="452W0jWJVssh9XhGpuLI-33" edge="1">
                    <mxGeometry relative="1" as="geometry"/>
                </mxCell>
                <mxCell id="452W0jWJVssh9XhGpuLI-30" value="TRUE" style="edgeStyle=orthogonalEdgeStyle;rounded=0;orthogonalLoop=1;jettySize=auto;html=1;" parent="1" source="452W0jWJVssh9XhGpuLI-31" target="452W0jWJVssh9XhGpuLI-36" edge="1">
                    <mxGeometry relative="1" as="geometry"/>
                </mxCell>
                <mxCell id="452W0jWJVssh9XhGpuLI-31" value="results.LENGTH &amp;gt; 0" style="rhombus;whiteSpace=wrap;html=1;" parent="1" vertex="1">
                    <mxGeometry x="468.75" y="1040" width="140" height="80" as="geometry"/>
                </mxCell>
                <mxCell id="2" value="" style="edgeStyle=none;html=1;" edge="1" parent="1" source="452W0jWJVssh9XhGpuLI-33" target="452W0jWJVssh9XhGpuLI-59">
                    <mxGeometry relative="1" as="geometry"/>
                </mxCell>
                <mxCell id="452W0jWJVssh9XhGpuLI-33" value="success: false&lt;br&gt;message: &quot;Data not found&quot;" style="shape=parallelogram;perimeter=parallelogramPerimeter;whiteSpace=wrap;html=1;fixedSize=1;" parent="1" vertex="1">
                    <mxGeometry x="263.75" y="1040" width="138.75" height="80" as="geometry"/>
                </mxCell>
                <mxCell id="452W0jWJVssh9XhGpuLI-34" value="" style="edgeStyle=orthogonalEdgeStyle;rounded=0;orthogonalLoop=1;jettySize=auto;html=1;fontSize=12;" parent="1" source="452W0jWJVssh9XhGpuLI-36" target="452W0jWJVssh9XhGpuLI-63" edge="1">
                    <mxGeometry relative="1" as="geometry"/>
                </mxCell>
                <mxCell id="452W0jWJVssh9XhGpuLI-36" value="Model&lt;br&gt;histories.countHistory(data, count)" style="rounded=0;whiteSpace=wrap;html=1;" parent="1" vertex="1">
                    <mxGeometry x="438.75" y="1170" width="200" height="60" as="geometry"/>
                </mxCell>
                <mxCell id="452W0jWJVssh9XhGpuLI-37" value="" style="edgeStyle=orthogonalEdgeStyle;rounded=0;orthogonalLoop=1;jettySize=auto;html=1;" parent="1" source="452W0jWJVssh9XhGpuLI-38" target="452W0jWJVssh9XhGpuLI-62" edge="1">
                    <mxGeometry relative="1" as="geometry"/>
                </mxCell>
                <mxCell id="452W0jWJVssh9XhGpuLI-38" value="{total} = count[0]&lt;br&gt;last = MATH.CEIL(total / limit)" style="rounded=0;whiteSpace=wrap;html=1;" parent="1" vertex="1">
                    <mxGeometry x="453.75" y="1460" width="170" height="60" as="geometry"/>
                </mxCell>
                <mxCell id="452W0jWJVssh9XhGpuLI-39" value="" style="edgeStyle=orthogonalEdgeStyle;rounded=0;orthogonalLoop=1;jettySize=auto;html=1;" parent="1" source="452W0jWJVssh9XhGpuLI-40" target="452W0jWJVssh9XhGpuLI-42" edge="1">
                    <mxGeometry relative="1" as="geometry"/>
                </mxCell>
                <mxCell id="452W0jWJVssh9XhGpuLI-40" value="&lt;div&gt;pageInfo:&amp;nbsp;&lt;span&gt;{&lt;/span&gt;&lt;/div&gt;&lt;div&gt;&lt;span&gt;&lt;span style=&quot;white-space: pre&quot;&gt;&#9;&lt;/span&gt;prev,&lt;/span&gt;&lt;span&gt;&amp;nbsp;next,&lt;/span&gt;&lt;span&gt;&amp;nbsp;totalData,&lt;/span&gt;&lt;span&gt;&amp;nbsp;currentPage,&lt;/span&gt;&lt;span&gt;&amp;nbsp;lastPage&lt;/span&gt;&lt;/div&gt;&lt;div&gt;&amp;nbsp;},&lt;/div&gt;" style="rounded=0;whiteSpace=wrap;html=1;align=left;" parent="1" vertex="1">
                    <mxGeometry x="402.5" y="1790" width="272.5" height="60" as="geometry"/>
                </mxCell>
                <mxCell id="452W0jWJVssh9XhGpuLI-41" value="" style="edgeStyle=orthogonalEdgeStyle;rounded=0;orthogonalLoop=1;jettySize=auto;html=1;" parent="1" source="452W0jWJVssh9XhGpuLI-42" edge="1">
                    <mxGeometry relative="1" as="geometry">
                        <mxPoint x="538.75" y="2040.0000000000005" as="targetPoint"/>
                    </mxGeometry>
                </mxCell>
                <mxCell id="452W0jWJVssh9XhGpuLI-42" value="&lt;div&gt;success: true,&lt;/div&gt;&lt;div&gt;message: `List histories`,&lt;/div&gt;&lt;div&gt;&lt;span&gt;results,&lt;/span&gt;&lt;/div&gt;&lt;div&gt;&lt;span&gt;pageInfo,&lt;/span&gt;&lt;/div&gt;" style="shape=parallelogram;perimeter=parallelogramPerimeter;whiteSpace=wrap;html=1;fixedSize=1;align=center;" parent="1" vertex="1">
                    <mxGeometry x="418.75" y="1910" width="240" height="60" as="geometry"/>
                </mxCell>
                <mxCell id="452W0jWJVssh9XhGpuLI-43" value="" style="edgeStyle=orthogonalEdgeStyle;rounded=0;orthogonalLoop=1;jettySize=auto;html=1;" parent="1" source="452W0jWJVssh9XhGpuLI-44" target="452W0jWJVssh9XhGpuLI-48" edge="1">
                    <mxGeometry relative="1" as="geometry"/>
                </mxCell>
                <mxCell id="452W0jWJVssh9XhGpuLI-44" value="B" style="ellipse;whiteSpace=wrap;html=1;aspect=fixed;" parent="1" vertex="1">
                    <mxGeometry x="825" y="925" width="70" height="70" as="geometry"/>
                </mxCell>
                <mxCell id="452W0jWJVssh9XhGpuLI-45" value="TRUE" style="edgeStyle=orthogonalEdgeStyle;rounded=0;orthogonalLoop=1;jettySize=auto;html=1;" parent="1" source="452W0jWJVssh9XhGpuLI-48" target="452W0jWJVssh9XhGpuLI-49" edge="1">
                    <mxGeometry relative="1" as="geometry"/>
                </mxCell>
                <mxCell id="452W0jWJVssh9XhGpuLI-46" value="" style="edgeStyle=orthogonalEdgeStyle;rounded=0;orthogonalLoop=1;jettySize=auto;html=1;" parent="1" source="452W0jWJVssh9XhGpuLI-48" target="452W0jWJVssh9XhGpuLI-51" edge="1">
                    <mxGeometry relative="1" as="geometry"/>
                </mxCell>
                <mxCell id="452W0jWJVssh9XhGpuLI-47" value="" style="edgeStyle=orthogonalEdgeStyle;rounded=0;orthogonalLoop=1;jettySize=auto;html=1;" parent="1" source="452W0jWJVssh9XhGpuLI-48" target="452W0jWJVssh9XhGpuLI-55" edge="1">
                    <mxGeometry relative="1" as="geometry"/>
                </mxCell>
                <mxCell id="452W0jWJVssh9XhGpuLI-48" value="page &amp;gt; 1" style="rhombus;whiteSpace=wrap;html=1;" parent="1" vertex="1">
                    <mxGeometry x="965" y="920" width="80" height="80" as="geometry"/>
                </mxCell>
                <mxCell id="452W0jWJVssh9XhGpuLI-49" value="&lt;span&gt;prev = `http://localhost:5000/histories?&lt;/span&gt;&lt;span&gt;search=${search}&amp;amp;page=${page - 1}&amp;amp;limit=${limit}`&lt;/span&gt;" style="rounded=0;whiteSpace=wrap;html=1;align=center;" parent="1" vertex="1">
                    <mxGeometry x="1120" y="930" width="485" height="60" as="geometry"/>
                </mxCell>
                <mxCell id="452W0jWJVssh9XhGpuLI-50" value="&lt;span style=&quot;text-align: left&quot;&gt;next = `http://localhost:5000/histories?&lt;/span&gt;&lt;span style=&quot;text-align: left&quot;&gt;search=${search}&amp;amp;page=${page + 1}&amp;amp;limit=${limit}`&lt;/span&gt;" style="rounded=0;whiteSpace=wrap;html=1;" parent="1" vertex="1">
                    <mxGeometry x="1120" y="1040" width="485" height="60" as="geometry"/>
                </mxCell>
                <mxCell id="452W0jWJVssh9XhGpuLI-51" value="prev = null" style="rounded=0;whiteSpace=wrap;html=1;" parent="1" vertex="1">
                    <mxGeometry x="945" y="820" width="120" height="60" as="geometry"/>
                </mxCell>
                <mxCell id="452W0jWJVssh9XhGpuLI-52" value="TRUE" style="edgeStyle=orthogonalEdgeStyle;rounded=0;orthogonalLoop=1;jettySize=auto;html=1;" parent="1" source="452W0jWJVssh9XhGpuLI-55" target="452W0jWJVssh9XhGpuLI-50" edge="1">
                    <mxGeometry relative="1" as="geometry"/>
                </mxCell>
                <mxCell id="452W0jWJVssh9XhGpuLI-53" value="" style="edgeStyle=orthogonalEdgeStyle;rounded=0;orthogonalLoop=1;jettySize=auto;html=1;" parent="1" source="452W0jWJVssh9XhGpuLI-55" target="452W0jWJVssh9XhGpuLI-56" edge="1">
                    <mxGeometry relative="1" as="geometry"/>
                </mxCell>
                <mxCell id="452W0jWJVssh9XhGpuLI-54" value="" style="edgeStyle=orthogonalEdgeStyle;rounded=0;orthogonalLoop=1;jettySize=auto;html=1;" parent="1" source="452W0jWJVssh9XhGpuLI-55" target="452W0jWJVssh9XhGpuLI-64" edge="1">
                    <mxGeometry relative="1" as="geometry"/>
                </mxCell>
                <mxCell id="452W0jWJVssh9XhGpuLI-55" value="page &amp;lt; last" style="rhombus;whiteSpace=wrap;html=1;" parent="1" vertex="1">
                    <mxGeometry x="965" y="1030" width="80" height="80" as="geometry"/>
                </mxCell>
                <mxCell id="452W0jWJVssh9XhGpuLI-56" value="next = null" style="rounded=0;whiteSpace=wrap;html=1;" parent="1" vertex="1">
                    <mxGeometry x="945" y="1140" width="120" height="60" as="geometry"/>
                </mxCell>
                <mxCell id="452W0jWJVssh9XhGpuLI-57" value="" style="edgeStyle=orthogonalEdgeStyle;rounded=0;orthogonalLoop=1;jettySize=auto;html=1;" parent="1" source="452W0jWJVssh9XhGpuLI-58" target="452W0jWJVssh9XhGpuLI-40" edge="1">
                    <mxGeometry relative="1" as="geometry"/>
                </mxCell>
                <mxCell id="452W0jWJVssh9XhGpuLI-58" value="totalData = total&lt;br&gt;currentPage = page&lt;br&gt;lastPage = last" style="rounded=0;whiteSpace=wrap;html=1;" parent="1" vertex="1">
                    <mxGeometry x="478.75" y="1680" width="120" height="60" as="geometry"/>
                </mxCell>
                <mxCell id="452W0jWJVssh9XhGpuLI-59" value="END" style="ellipse;whiteSpace=wrap;html=1;" parent="1" vertex="1">
                    <mxGeometry x="80" y="1040" width="120" height="80" as="geometry"/>
                </mxCell>
                <mxCell id="452W0jWJVssh9XhGpuLI-60" value="END" style="ellipse;whiteSpace=wrap;html=1;" parent="1" vertex="1">
                    <mxGeometry x="478.75" y="2040" width="120" height="80" as="geometry"/>
                </mxCell>
                <mxCell id="452W0jWJVssh9XhGpuLI-61" value="" style="edgeStyle=orthogonalEdgeStyle;rounded=0;orthogonalLoop=1;jettySize=auto;html=1;" parent="1" source="452W0jWJVssh9XhGpuLI-62" target="452W0jWJVssh9XhGpuLI-58" edge="1">
                    <mxGeometry relative="1" as="geometry"/>
                </mxCell>
                <mxCell id="452W0jWJVssh9XhGpuLI-62" value="B" style="ellipse;whiteSpace=wrap;html=1;aspect=fixed;" parent="1" vertex="1">
                    <mxGeometry x="503.75" y="1570" width="70" height="70" as="geometry"/>
                </mxCell>
                <mxCell id="7QxRg88MOw6P7cWPFtko-1" value="" style="edgeStyle=orthogonalEdgeStyle;rounded=0;orthogonalLoop=1;jettySize=auto;html=1;" parent="1" source="452W0jWJVssh9XhGpuLI-63" target="452W0jWJVssh9XhGpuLI-38" edge="1">
                    <mxGeometry relative="1" as="geometry"/>
                </mxCell>
                <mxCell id="452W0jWJVssh9XhGpuLI-63" value="rent_vehicles" style="shape=cylinder3;whiteSpace=wrap;html=1;boundedLbl=1;backgroundOutline=1;size=15;" parent="1" vertex="1">
                    <mxGeometry x="493.75" y="1300" width="90" height="80" as="geometry"/>
                </mxCell>
                <mxCell id="452W0jWJVssh9XhGpuLI-64" value="B" style="ellipse;whiteSpace=wrap;html=1;aspect=fixed;" parent="1" vertex="1">
                    <mxGeometry x="825" y="1035" width="70" height="70" as="geometry"/>
                </mxCell>
            </root>
        </mxGraphModel>
    </diagram>
    <diagram id="q_NCcGGk11ZwcwXTaG-n" name="history by id">
        <mxGraphModel dx="782" dy="579" grid="1" gridSize="10" guides="1" tooltips="1" connect="1" arrows="1" fold="1" page="1" pageScale="1" pageWidth="850" pageHeight="1100" math="0" shadow="0">
            <root>
                <mxCell id="hjFE3tLGXjKZjPv6mzIS-0"/>
                <mxCell id="hjFE3tLGXjKZjPv6mzIS-1" parent="hjFE3tLGXjKZjPv6mzIS-0"/>
                <mxCell id="YqDuwtSMpE-x2yZr22N3-2" value="" style="edgeStyle=orthogonalEdgeStyle;rounded=0;orthogonalLoop=1;jettySize=auto;html=1;" parent="hjFE3tLGXjKZjPv6mzIS-1" source="YqDuwtSMpE-x2yZr22N3-0" target="YqDuwtSMpE-x2yZr22N3-1" edge="1">
                    <mxGeometry relative="1" as="geometry"/>
                </mxCell>
                <mxCell id="YqDuwtSMpE-x2yZr22N3-0" value="START" style="ellipse;whiteSpace=wrap;html=1;" parent="hjFE3tLGXjKZjPv6mzIS-1" vertex="1">
                    <mxGeometry x="500" y="30" width="120" height="80" as="geometry"/>
                </mxCell>
                <mxCell id="YqDuwtSMpE-x2yZr22N3-4" value="" style="edgeStyle=orthogonalEdgeStyle;rounded=0;orthogonalLoop=1;jettySize=auto;html=1;" parent="hjFE3tLGXjKZjPv6mzIS-1" source="YqDuwtSMpE-x2yZr22N3-1" target="YqDuwtSMpE-x2yZr22N3-3" edge="1">
                    <mxGeometry relative="1" as="geometry"/>
                </mxCell>
                <mxCell id="YqDuwtSMpE-x2yZr22N3-1" value="id" style="shape=parallelogram;perimeter=parallelogramPerimeter;whiteSpace=wrap;html=1;fixedSize=1;" parent="hjFE3tLGXjKZjPv6mzIS-1" vertex="1">
                    <mxGeometry x="500" y="160" width="120" height="60" as="geometry"/>
                </mxCell>
                <mxCell id="YqDuwtSMpE-x2yZr22N3-6" value="" style="edgeStyle=orthogonalEdgeStyle;rounded=0;orthogonalLoop=1;jettySize=auto;html=1;" parent="hjFE3tLGXjKZjPv6mzIS-1" source="YqDuwtSMpE-x2yZr22N3-3" target="YqDuwtSMpE-x2yZr22N3-5" edge="1">
                    <mxGeometry relative="1" as="geometry"/>
                </mxCell>
                <mxCell id="YqDuwtSMpE-x2yZr22N3-8" value="" style="edgeStyle=orthogonalEdgeStyle;rounded=0;orthogonalLoop=1;jettySize=auto;html=1;" parent="hjFE3tLGXjKZjPv6mzIS-1" target="YqDuwtSMpE-x2yZr22N3-7" edge="1">
                    <mxGeometry relative="1" as="geometry">
                        <mxPoint x="560" y="440" as="sourcePoint"/>
                    </mxGeometry>
                </mxCell>
                <mxCell id="YqDuwtSMpE-x2yZr22N3-3" value="MODEL&lt;br&gt;histories.getHistory(id, results)" style="rounded=0;whiteSpace=wrap;html=1;" parent="hjFE3tLGXjKZjPv6mzIS-1" vertex="1">
                    <mxGeometry x="490" y="270" width="140" height="60" as="geometry"/>
                </mxCell>
                <mxCell id="YqDuwtSMpE-x2yZr22N3-5" value="rent_vehicles" style="shape=cylinder3;whiteSpace=wrap;html=1;boundedLbl=1;backgroundOutline=1;size=15;" parent="hjFE3tLGXjKZjPv6mzIS-1" vertex="1">
                    <mxGeometry x="505" y="370" width="110" height="80" as="geometry"/>
                </mxCell>
                <mxCell id="YqDuwtSMpE-x2yZr22N3-10" value="FALSE" style="edgeStyle=orthogonalEdgeStyle;rounded=0;orthogonalLoop=1;jettySize=auto;html=1;" parent="hjFE3tLGXjKZjPv6mzIS-1" source="YqDuwtSMpE-x2yZr22N3-7" target="YqDuwtSMpE-x2yZr22N3-9" edge="1">
                    <mxGeometry relative="1" as="geometry"/>
                </mxCell>
                <mxCell id="YqDuwtSMpE-x2yZr22N3-14" value="TRUE" style="edgeStyle=orthogonalEdgeStyle;rounded=0;orthogonalLoop=1;jettySize=auto;html=1;" parent="hjFE3tLGXjKZjPv6mzIS-1" source="YqDuwtSMpE-x2yZr22N3-7" target="YqDuwtSMpE-x2yZr22N3-13" edge="1">
                    <mxGeometry relative="1" as="geometry"/>
                </mxCell>
                <mxCell id="YqDuwtSMpE-x2yZr22N3-7" value="results.LENGTH &amp;gt; 0" style="rhombus;whiteSpace=wrap;html=1;" parent="hjFE3tLGXjKZjPv6mzIS-1" vertex="1">
                    <mxGeometry x="497.5" y="500" width="125" height="80" as="geometry"/>
                </mxCell>
                <mxCell id="YqDuwtSMpE-x2yZr22N3-12" value="" style="edgeStyle=orthogonalEdgeStyle;rounded=0;orthogonalLoop=1;jettySize=auto;html=1;" parent="hjFE3tLGXjKZjPv6mzIS-1" source="YqDuwtSMpE-x2yZr22N3-9" target="YqDuwtSMpE-x2yZr22N3-11" edge="1">
                    <mxGeometry relative="1" as="geometry"/>
                </mxCell>
                <mxCell id="YqDuwtSMpE-x2yZr22N3-9" value="success: false,&lt;br&gt;message: &quot;History not found&quot;" style="shape=parallelogram;perimeter=parallelogramPerimeter;whiteSpace=wrap;html=1;fixedSize=1;" parent="hjFE3tLGXjKZjPv6mzIS-1" vertex="1">
                    <mxGeometry x="260" y="510" width="150" height="60" as="geometry"/>
                </mxCell>
                <mxCell id="YqDuwtSMpE-x2yZr22N3-11" value="END" style="ellipse;whiteSpace=wrap;html=1;" parent="hjFE3tLGXjKZjPv6mzIS-1" vertex="1">
                    <mxGeometry x="60" y="500" width="120" height="80" as="geometry"/>
                </mxCell>
                <mxCell id="YqDuwtSMpE-x2yZr22N3-16" value="" style="edgeStyle=orthogonalEdgeStyle;rounded=0;orthogonalLoop=1;jettySize=auto;html=1;" parent="hjFE3tLGXjKZjPv6mzIS-1" source="YqDuwtSMpE-x2yZr22N3-13" target="YqDuwtSMpE-x2yZr22N3-15" edge="1">
                    <mxGeometry relative="1" as="geometry"/>
                </mxCell>
                <mxCell id="YqDuwtSMpE-x2yZr22N3-13" value="success: true,&lt;br&gt;message: `History with id ${id}`,&lt;br&gt;results: results[0]" style="shape=parallelogram;perimeter=parallelogramPerimeter;whiteSpace=wrap;html=1;fixedSize=1;" parent="hjFE3tLGXjKZjPv6mzIS-1" vertex="1">
                    <mxGeometry x="465" y="640" width="190" height="60" as="geometry"/>
                </mxCell>
                <mxCell id="YqDuwtSMpE-x2yZr22N3-15" value="END" style="ellipse;whiteSpace=wrap;html=1;" parent="hjFE3tLGXjKZjPv6mzIS-1" vertex="1">
                    <mxGeometry x="500" y="770" width="120" height="80" as="geometry"/>
                </mxCell>
            </root>
        </mxGraphModel>
    </diagram>
    <diagram id="E3kjD3rwfJ6af1RQZVww" name="add history">
        <mxGraphModel dx="920" dy="681" grid="1" gridSize="10" guides="1" tooltips="1" connect="1" arrows="1" fold="1" page="1" pageScale="1" pageWidth="850" pageHeight="1100" math="0" shadow="0">
            <root>
                <mxCell id="MP_MUvmoKOp5jrR6Ta0f-0"/>
                <mxCell id="MP_MUvmoKOp5jrR6Ta0f-1" parent="MP_MUvmoKOp5jrR6Ta0f-0"/>
                <mxCell id="MP_MUvmoKOp5jrR6Ta0f-6" value="" style="edgeStyle=orthogonalEdgeStyle;rounded=0;orthogonalLoop=1;jettySize=auto;html=1;" parent="MP_MUvmoKOp5jrR6Ta0f-1" source="MP_MUvmoKOp5jrR6Ta0f-2" target="MP_MUvmoKOp5jrR6Ta0f-4" edge="1">
                    <mxGeometry relative="1" as="geometry"/>
                </mxCell>
                <mxCell id="MP_MUvmoKOp5jrR6Ta0f-2" value="START" style="ellipse;whiteSpace=wrap;html=1;" parent="MP_MUvmoKOp5jrR6Ta0f-1" vertex="1">
                    <mxGeometry x="590" y="80" width="120" height="80" as="geometry"/>
                </mxCell>
                <mxCell id="MP_MUvmoKOp5jrR6Ta0f-7" value="" style="edgeStyle=orthogonalEdgeStyle;rounded=0;orthogonalLoop=1;jettySize=auto;html=1;" parent="MP_MUvmoKOp5jrR6Ta0f-1" source="MP_MUvmoKOp5jrR6Ta0f-4" target="MP_MUvmoKOp5jrR6Ta0f-5" edge="1">
                    <mxGeometry relative="1" as="geometry"/>
                </mxCell>
                <mxCell id="MP_MUvmoKOp5jrR6Ta0f-4" value="id_user&lt;br&gt;id_vehicle&lt;br&gt;rent_start_date" style="shape=parallelogram;perimeter=parallelogramPerimeter;whiteSpace=wrap;html=1;fixedSize=1;" parent="MP_MUvmoKOp5jrR6Ta0f-1" vertex="1">
                    <mxGeometry x="590" y="210" width="120" height="60" as="geometry"/>
                </mxCell>
                <mxCell id="MP_MUvmoKOp5jrR6Ta0f-9" value="" style="edgeStyle=orthogonalEdgeStyle;rounded=0;orthogonalLoop=1;jettySize=auto;html=1;" parent="MP_MUvmoKOp5jrR6Ta0f-1" source="MP_MUvmoKOp5jrR6Ta0f-5" target="MP_MUvmoKOp5jrR6Ta0f-8" edge="1">
                    <mxGeometry relative="1" as="geometry"/>
                </mxCell>
                <mxCell id="MP_MUvmoKOp5jrR6Ta0f-5" value="rent_end_date&lt;br&gt;prepayment" style="shape=parallelogram;perimeter=parallelogramPerimeter;whiteSpace=wrap;html=1;fixedSize=1;" parent="MP_MUvmoKOp5jrR6Ta0f-1" vertex="1">
                    <mxGeometry x="590" y="340" width="120" height="60" as="geometry"/>
                </mxCell>
                <mxCell id="MP_MUvmoKOp5jrR6Ta0f-11" value="TRUE" style="edgeStyle=orthogonalEdgeStyle;rounded=0;orthogonalLoop=1;jettySize=auto;html=1;" parent="MP_MUvmoKOp5jrR6Ta0f-1" source="MP_MUvmoKOp5jrR6Ta0f-8" target="MP_MUvmoKOp5jrR6Ta0f-10" edge="1">
                    <mxGeometry relative="1" as="geometry"/>
                </mxCell>
                <mxCell id="MP_MUvmoKOp5jrR6Ta0f-16" value="FALSE" style="edgeStyle=orthogonalEdgeStyle;rounded=0;orthogonalLoop=1;jettySize=auto;html=1;" parent="MP_MUvmoKOp5jrR6Ta0f-1" source="MP_MUvmoKOp5jrR6Ta0f-8" target="MP_MUvmoKOp5jrR6Ta0f-12" edge="1">
                    <mxGeometry relative="1" as="geometry"/>
                </mxCell>
                <mxCell id="MP_MUvmoKOp5jrR6Ta0f-8" value="id_user &amp;&amp; id_vehicle &amp;&amp; rent_start_date &amp;&amp; rent_end_date &amp;&amp; prepayment" style="rhombus;whiteSpace=wrap;html=1;" parent="MP_MUvmoKOp5jrR6Ta0f-1" vertex="1">
                    <mxGeometry x="555" y="450" width="190" height="140" as="geometry"/>
                </mxCell>
                <mxCell id="MP_MUvmoKOp5jrR6Ta0f-18" value="" style="edgeStyle=orthogonalEdgeStyle;rounded=0;orthogonalLoop=1;jettySize=auto;html=1;" parent="MP_MUvmoKOp5jrR6Ta0f-1" target="MP_MUvmoKOp5jrR6Ta0f-17" edge="1">
                    <mxGeometry relative="1" as="geometry">
                        <mxPoint x="650" y="810" as="sourcePoint"/>
                    </mxGeometry>
                </mxCell>
                <mxCell id="MP_MUvmoKOp5jrR6Ta0f-20" value="" style="edgeStyle=orthogonalEdgeStyle;rounded=0;orthogonalLoop=1;jettySize=auto;html=1;" parent="MP_MUvmoKOp5jrR6Ta0f-1" source="MP_MUvmoKOp5jrR6Ta0f-10" target="MP_MUvmoKOp5jrR6Ta0f-19" edge="1">
                    <mxGeometry relative="1" as="geometry"/>
                </mxCell>
                <mxCell id="MP_MUvmoKOp5jrR6Ta0f-10" value="MODEL&lt;br&gt;users.getUser(id_user, user)" style="rounded=0;whiteSpace=wrap;html=1;" parent="MP_MUvmoKOp5jrR6Ta0f-1" vertex="1">
                    <mxGeometry x="580" y="660" width="140" height="60" as="geometry"/>
                </mxCell>
                <mxCell id="MP_MUvmoKOp5jrR6Ta0f-15" value="" style="edgeStyle=orthogonalEdgeStyle;rounded=0;orthogonalLoop=1;jettySize=auto;html=1;" parent="MP_MUvmoKOp5jrR6Ta0f-1" source="MP_MUvmoKOp5jrR6Ta0f-12" target="MP_MUvmoKOp5jrR6Ta0f-14" edge="1">
                    <mxGeometry relative="1" as="geometry"/>
                </mxCell>
                <mxCell id="MP_MUvmoKOp5jrR6Ta0f-12" value="success: false,&lt;br&gt;message: ''Failed add new history, data must be filled''," style="shape=parallelogram;perimeter=parallelogramPerimeter;whiteSpace=wrap;html=1;fixedSize=1;" parent="MP_MUvmoKOp5jrR6Ta0f-1" vertex="1">
                    <mxGeometry x="270" y="480" width="200" height="80" as="geometry"/>
                </mxCell>
                <mxCell id="MP_MUvmoKOp5jrR6Ta0f-14" value="END" style="ellipse;whiteSpace=wrap;html=1;" parent="MP_MUvmoKOp5jrR6Ta0f-1" vertex="1">
                    <mxGeometry x="90" y="480" width="120" height="80" as="geometry"/>
                </mxCell>
                <mxCell id="MP_MUvmoKOp5jrR6Ta0f-22" value="FALSE" style="edgeStyle=orthogonalEdgeStyle;rounded=0;orthogonalLoop=1;jettySize=auto;html=1;" parent="MP_MUvmoKOp5jrR6Ta0f-1" source="MP_MUvmoKOp5jrR6Ta0f-17" target="MP_MUvmoKOp5jrR6Ta0f-21" edge="1">
                    <mxGeometry relative="1" as="geometry"/>
                </mxCell>
                <mxCell id="MP_MUvmoKOp5jrR6Ta0f-24" value="TRUE" style="edgeStyle=orthogonalEdgeStyle;rounded=0;orthogonalLoop=1;jettySize=auto;html=1;" parent="MP_MUvmoKOp5jrR6Ta0f-1" source="MP_MUvmoKOp5jrR6Ta0f-17" target="MP_MUvmoKOp5jrR6Ta0f-23" edge="1">
                    <mxGeometry relative="1" as="geometry"/>
                </mxCell>
                <mxCell id="MP_MUvmoKOp5jrR6Ta0f-17" value="user.LENGTH &amp;gt; 0" style="rhombus;whiteSpace=wrap;html=1;" parent="MP_MUvmoKOp5jrR6Ta0f-1" vertex="1">
                    <mxGeometry x="595" y="860" width="110" height="90" as="geometry"/>
                </mxCell>
                <mxCell id="MP_MUvmoKOp5jrR6Ta0f-19" value="rent_vehicles" style="shape=cylinder3;whiteSpace=wrap;html=1;boundedLbl=1;backgroundOutline=1;size=15;" parent="MP_MUvmoKOp5jrR6Ta0f-1" vertex="1">
                    <mxGeometry x="595" y="750" width="110" height="80" as="geometry"/>
                </mxCell>
                <mxCell id="MP_MUvmoKOp5jrR6Ta0f-72" value="" style="edgeStyle=orthogonalEdgeStyle;rounded=0;orthogonalLoop=1;jettySize=auto;html=1;" parent="MP_MUvmoKOp5jrR6Ta0f-1" source="MP_MUvmoKOp5jrR6Ta0f-21" target="MP_MUvmoKOp5jrR6Ta0f-33" edge="1">
                    <mxGeometry relative="1" as="geometry"/>
                </mxCell>
                <mxCell id="MP_MUvmoKOp5jrR6Ta0f-21" value="success: false,&lt;br&gt;message: &quot;id_user is undifined&quot;" style="shape=parallelogram;perimeter=parallelogramPerimeter;whiteSpace=wrap;html=1;fixedSize=1;" parent="MP_MUvmoKOp5jrR6Ta0f-1" vertex="1">
                    <mxGeometry x="360" y="875" width="150" height="60" as="geometry"/>
                </mxCell>
                <mxCell id="MP_MUvmoKOp5jrR6Ta0f-26" value="" style="edgeStyle=orthogonalEdgeStyle;rounded=0;orthogonalLoop=1;jettySize=auto;html=1;" parent="MP_MUvmoKOp5jrR6Ta0f-1" source="MP_MUvmoKOp5jrR6Ta0f-23" target="MP_MUvmoKOp5jrR6Ta0f-25" edge="1">
                    <mxGeometry relative="1" as="geometry"/>
                </mxCell>
                <mxCell id="MP_MUvmoKOp5jrR6Ta0f-23" value="MODEL&lt;br&gt;vehicles.getVehicle(id_vehicle, vehicle)" style="rounded=0;whiteSpace=wrap;html=1;" parent="MP_MUvmoKOp5jrR6Ta0f-1" vertex="1">
                    <mxGeometry x="560" y="1020" width="180" height="70" as="geometry"/>
                </mxCell>
                <mxCell id="7zsdWu0S4rThD5_Sk0r7-0" value="" style="edgeStyle=orthogonalEdgeStyle;rounded=0;orthogonalLoop=1;jettySize=auto;html=1;" edge="1" parent="MP_MUvmoKOp5jrR6Ta0f-1" source="MP_MUvmoKOp5jrR6Ta0f-25" target="MP_MUvmoKOp5jrR6Ta0f-27">
                    <mxGeometry relative="1" as="geometry"/>
                </mxCell>
                <mxCell id="MP_MUvmoKOp5jrR6Ta0f-25" value="rent_vehicles" style="shape=cylinder3;whiteSpace=wrap;html=1;boundedLbl=1;backgroundOutline=1;size=15;" parent="MP_MUvmoKOp5jrR6Ta0f-1" vertex="1">
                    <mxGeometry x="595" y="1130" width="110" height="80" as="geometry"/>
                </mxCell>
                <mxCell id="MP_MUvmoKOp5jrR6Ta0f-30" value="FALSE" style="edgeStyle=orthogonalEdgeStyle;rounded=0;orthogonalLoop=1;jettySize=auto;html=1;" parent="MP_MUvmoKOp5jrR6Ta0f-1" source="MP_MUvmoKOp5jrR6Ta0f-27" target="MP_MUvmoKOp5jrR6Ta0f-29" edge="1">
                    <mxGeometry relative="1" as="geometry"/>
                </mxCell>
                <mxCell id="MP_MUvmoKOp5jrR6Ta0f-36" value="TRUE" style="edgeStyle=orthogonalEdgeStyle;rounded=0;orthogonalLoop=1;jettySize=auto;html=1;" parent="MP_MUvmoKOp5jrR6Ta0f-1" source="MP_MUvmoKOp5jrR6Ta0f-27" target="MP_MUvmoKOp5jrR6Ta0f-35" edge="1">
                    <mxGeometry relative="1" as="geometry"/>
                </mxCell>
                <mxCell id="MP_MUvmoKOp5jrR6Ta0f-27" value="vehicle.LENGTH &amp;gt; 0" style="rhombus;whiteSpace=wrap;html=1;" parent="MP_MUvmoKOp5jrR6Ta0f-1" vertex="1">
                    <mxGeometry x="590" y="1270" width="120" height="90" as="geometry"/>
                </mxCell>
                <mxCell id="MP_MUvmoKOp5jrR6Ta0f-32" value="" style="edgeStyle=orthogonalEdgeStyle;rounded=0;orthogonalLoop=1;jettySize=auto;html=1;" parent="MP_MUvmoKOp5jrR6Ta0f-1" source="MP_MUvmoKOp5jrR6Ta0f-29" target="MP_MUvmoKOp5jrR6Ta0f-31" edge="1">
                    <mxGeometry relative="1" as="geometry"/>
                </mxCell>
                <mxCell id="MP_MUvmoKOp5jrR6Ta0f-29" value="success: false,&lt;br&gt;message: &quot;id_vehicle is undifined&quot;" style="shape=parallelogram;perimeter=parallelogramPerimeter;whiteSpace=wrap;html=1;fixedSize=1;" parent="MP_MUvmoKOp5jrR6Ta0f-1" vertex="1">
                    <mxGeometry x="350" y="1285" width="150" height="60" as="geometry"/>
                </mxCell>
                <mxCell id="MP_MUvmoKOp5jrR6Ta0f-31" value="END" style="ellipse;whiteSpace=wrap;html=1;" parent="MP_MUvmoKOp5jrR6Ta0f-1" vertex="1">
                    <mxGeometry x="180" y="1275" width="120" height="80" as="geometry"/>
                </mxCell>
                <mxCell id="MP_MUvmoKOp5jrR6Ta0f-33" value="END" style="ellipse;whiteSpace=wrap;html=1;" parent="MP_MUvmoKOp5jrR6Ta0f-1" vertex="1">
                    <mxGeometry x="170" y="865" width="120" height="80" as="geometry"/>
                </mxCell>
                <mxCell id="MP_MUvmoKOp5jrR6Ta0f-38" value="" style="edgeStyle=orthogonalEdgeStyle;rounded=0;orthogonalLoop=1;jettySize=auto;html=1;" parent="MP_MUvmoKOp5jrR6Ta0f-1" source="MP_MUvmoKOp5jrR6Ta0f-35" target="MP_MUvmoKOp5jrR6Ta0f-37" edge="1">
                    <mxGeometry relative="1" as="geometry"/>
                </mxCell>
                <mxCell id="MP_MUvmoKOp5jrR6Ta0f-35" value="HELPER&lt;br&gt;checkDate(date)" style="rounded=0;whiteSpace=wrap;html=1;" parent="MP_MUvmoKOp5jrR6Ta0f-1" vertex="1">
                    <mxGeometry x="590" y="1410" width="120" height="60" as="geometry"/>
                </mxCell>
                <mxCell id="MP_MUvmoKOp5jrR6Ta0f-40" value="FALSE" style="edgeStyle=orthogonalEdgeStyle;rounded=0;orthogonalLoop=1;jettySize=auto;html=1;" parent="MP_MUvmoKOp5jrR6Ta0f-1" source="MP_MUvmoKOp5jrR6Ta0f-37" target="MP_MUvmoKOp5jrR6Ta0f-39" edge="1">
                    <mxGeometry relative="1" as="geometry"/>
                </mxCell>
                <mxCell id="MP_MUvmoKOp5jrR6Ta0f-44" value="" style="edgeStyle=orthogonalEdgeStyle;rounded=0;orthogonalLoop=1;jettySize=auto;html=1;" parent="MP_MUvmoKOp5jrR6Ta0f-1" source="MP_MUvmoKOp5jrR6Ta0f-37" target="MP_MUvmoKOp5jrR6Ta0f-43" edge="1">
                    <mxGeometry relative="1" as="geometry"/>
                </mxCell>
                <mxCell id="MP_MUvmoKOp5jrR6Ta0f-37" value="checkDate(rent_start_date) &amp;amp;&amp;amp; checkDate(rent_end_date)" style="rhombus;whiteSpace=wrap;html=1;" parent="MP_MUvmoKOp5jrR6Ta0f-1" vertex="1">
                    <mxGeometry x="560" y="1530" width="180" height="130" as="geometry"/>
                </mxCell>
                <mxCell id="MP_MUvmoKOp5jrR6Ta0f-42" value="" style="edgeStyle=orthogonalEdgeStyle;rounded=0;orthogonalLoop=1;jettySize=auto;html=1;" parent="MP_MUvmoKOp5jrR6Ta0f-1" source="MP_MUvmoKOp5jrR6Ta0f-39" target="MP_MUvmoKOp5jrR6Ta0f-41" edge="1">
                    <mxGeometry relative="1" as="geometry"/>
                </mxCell>
                <mxCell id="MP_MUvmoKOp5jrR6Ta0f-39" value="status: false,&lt;br&gt;message: ''Wrong date input for rent_start_date and rent_end_date. Format date YYYY-MM-DD''," style="shape=parallelogram;perimeter=parallelogramPerimeter;whiteSpace=wrap;html=1;fixedSize=1;" parent="MP_MUvmoKOp5jrR6Ta0f-1" vertex="1">
                    <mxGeometry x="200" y="1555" width="250" height="80" as="geometry"/>
                </mxCell>
                <mxCell id="MP_MUvmoKOp5jrR6Ta0f-41" value="END" style="ellipse;whiteSpace=wrap;html=1;" parent="MP_MUvmoKOp5jrR6Ta0f-1" vertex="1">
                    <mxGeometry x="30" y="1555" width="120" height="80" as="geometry"/>
                </mxCell>
                <mxCell id="MP_MUvmoKOp5jrR6Ta0f-47" value="" style="edgeStyle=orthogonalEdgeStyle;rounded=0;orthogonalLoop=1;jettySize=auto;html=1;" parent="MP_MUvmoKOp5jrR6Ta0f-1" source="MP_MUvmoKOp5jrR6Ta0f-43" target="MP_MUvmoKOp5jrR6Ta0f-45" edge="1">
                    <mxGeometry relative="1" as="geometry"/>
                </mxCell>
                <mxCell id="MP_MUvmoKOp5jrR6Ta0f-43" value="pola = /\D/g" style="rounded=0;whiteSpace=wrap;html=1;" parent="MP_MUvmoKOp5jrR6Ta0f-1" vertex="1">
                    <mxGeometry x="590" y="1720" width="120" height="60" as="geometry"/>
                </mxCell>
                <mxCell id="MP_MUvmoKOp5jrR6Ta0f-49" value="FALSE" style="edgeStyle=orthogonalEdgeStyle;rounded=0;orthogonalLoop=1;jettySize=auto;html=1;" parent="MP_MUvmoKOp5jrR6Ta0f-1" source="MP_MUvmoKOp5jrR6Ta0f-45" target="MP_MUvmoKOp5jrR6Ta0f-48" edge="1">
                    <mxGeometry relative="1" as="geometry"/>
                </mxCell>
                <mxCell id="MP_MUvmoKOp5jrR6Ta0f-53" value="TRUE" style="edgeStyle=orthogonalEdgeStyle;rounded=0;orthogonalLoop=1;jettySize=auto;html=1;" parent="MP_MUvmoKOp5jrR6Ta0f-1" source="MP_MUvmoKOp5jrR6Ta0f-45" target="MP_MUvmoKOp5jrR6Ta0f-52" edge="1">
                    <mxGeometry relative="1" as="geometry"/>
                </mxCell>
                <mxCell id="MP_MUvmoKOp5jrR6Ta0f-45" value="!pola.TEST(prepayment)" style="rhombus;whiteSpace=wrap;html=1;" parent="MP_MUvmoKOp5jrR6Ta0f-1" vertex="1">
                    <mxGeometry x="575" y="1850" width="150" height="110" as="geometry"/>
                </mxCell>
                <mxCell id="MP_MUvmoKOp5jrR6Ta0f-51" value="" style="edgeStyle=orthogonalEdgeStyle;rounded=0;orthogonalLoop=1;jettySize=auto;html=1;" parent="MP_MUvmoKOp5jrR6Ta0f-1" source="MP_MUvmoKOp5jrR6Ta0f-48" target="MP_MUvmoKOp5jrR6Ta0f-50" edge="1">
                    <mxGeometry relative="1" as="geometry"/>
                </mxCell>
                <mxCell id="MP_MUvmoKOp5jrR6Ta0f-48" value="status: false,&lt;br&gt;message: &quot;prepayment must be number&quot;" style="shape=parallelogram;perimeter=parallelogramPerimeter;whiteSpace=wrap;html=1;fixedSize=1;" parent="MP_MUvmoKOp5jrR6Ta0f-1" vertex="1">
                    <mxGeometry x="280" y="1875" width="200" height="60" as="geometry"/>
                </mxCell>
                <mxCell id="MP_MUvmoKOp5jrR6Ta0f-50" value="END" style="ellipse;whiteSpace=wrap;html=1;" parent="MP_MUvmoKOp5jrR6Ta0f-1" vertex="1">
                    <mxGeometry x="90" y="1865" width="120" height="80" as="geometry"/>
                </mxCell>
                <mxCell id="MP_MUvmoKOp5jrR6Ta0f-55" value="" style="edgeStyle=orthogonalEdgeStyle;rounded=0;orthogonalLoop=1;jettySize=auto;html=1;" parent="MP_MUvmoKOp5jrR6Ta0f-1" source="MP_MUvmoKOp5jrR6Ta0f-52" target="MP_MUvmoKOp5jrR6Ta0f-54" edge="1">
                    <mxGeometry relative="1" as="geometry"/>
                </mxCell>
                <mxCell id="MP_MUvmoKOp5jrR6Ta0f-52" value="status = &quot;not been returned&quot;" style="rounded=0;whiteSpace=wrap;html=1;" parent="MP_MUvmoKOp5jrR6Ta0f-1" vertex="1">
                    <mxGeometry x="565" y="2020" width="170" height="60" as="geometry"/>
                </mxCell>
                <mxCell id="MP_MUvmoKOp5jrR6Ta0f-57" value="" style="edgeStyle=orthogonalEdgeStyle;rounded=0;orthogonalLoop=1;jettySize=auto;html=1;" parent="MP_MUvmoKOp5jrR6Ta0f-1" source="MP_MUvmoKOp5jrR6Ta0f-54" target="MP_MUvmoKOp5jrR6Ta0f-56" edge="1">
                    <mxGeometry relative="1" as="geometry"/>
                </mxCell>
                <mxCell id="MP_MUvmoKOp5jrR6Ta0f-54" value="data = {id_user, id_vehicle, rent_start_date, rent_end_date, prepayment, status,}" style="rounded=0;whiteSpace=wrap;html=1;" parent="MP_MUvmoKOp5jrR6Ta0f-1" vertex="1">
                    <mxGeometry x="560" y="2140" width="180" height="60" as="geometry"/>
                </mxCell>
                <mxCell id="MP_MUvmoKOp5jrR6Ta0f-59" value="" style="edgeStyle=orthogonalEdgeStyle;rounded=0;orthogonalLoop=1;jettySize=auto;html=1;" parent="MP_MUvmoKOp5jrR6Ta0f-1" source="MP_MUvmoKOp5jrR6Ta0f-56" target="MP_MUvmoKOp5jrR6Ta0f-58" edge="1">
                    <mxGeometry relative="1" as="geometry"/>
                </mxCell>
                <mxCell id="MP_MUvmoKOp5jrR6Ta0f-61" value="" style="edgeStyle=orthogonalEdgeStyle;rounded=0;orthogonalLoop=1;jettySize=auto;html=1;" parent="MP_MUvmoKOp5jrR6Ta0f-1" source="MP_MUvmoKOp5jrR6Ta0f-56" target="MP_MUvmoKOp5jrR6Ta0f-60" edge="1">
                    <mxGeometry relative="1" as="geometry"/>
                </mxCell>
                <mxCell id="MP_MUvmoKOp5jrR6Ta0f-56" value="MODEL&lt;br&gt;histories.addHistory(data)" style="rounded=0;whiteSpace=wrap;html=1;" parent="MP_MUvmoKOp5jrR6Ta0f-1" vertex="1">
                    <mxGeometry x="580" y="2250" width="140" height="60" as="geometry"/>
                </mxCell>
                <mxCell id="MP_MUvmoKOp5jrR6Ta0f-58" value="rent_vehicles" style="shape=cylinder3;whiteSpace=wrap;html=1;boundedLbl=1;backgroundOutline=1;size=15;" parent="MP_MUvmoKOp5jrR6Ta0f-1" vertex="1">
                    <mxGeometry x="360" y="2240" width="110" height="80" as="geometry"/>
                </mxCell>
                <mxCell id="MP_MUvmoKOp5jrR6Ta0f-63" value="" style="edgeStyle=orthogonalEdgeStyle;rounded=0;orthogonalLoop=1;jettySize=auto;html=1;" parent="MP_MUvmoKOp5jrR6Ta0f-1" source="MP_MUvmoKOp5jrR6Ta0f-60" target="MP_MUvmoKOp5jrR6Ta0f-62" edge="1">
                    <mxGeometry relative="1" as="geometry"/>
                </mxCell>
                <mxCell id="MP_MUvmoKOp5jrR6Ta0f-67" value="" style="edgeStyle=orthogonalEdgeStyle;rounded=0;orthogonalLoop=1;jettySize=auto;html=1;" parent="MP_MUvmoKOp5jrR6Ta0f-1" source="MP_MUvmoKOp5jrR6Ta0f-60" target="MP_MUvmoKOp5jrR6Ta0f-64" edge="1">
                    <mxGeometry relative="1" as="geometry"/>
                </mxCell>
                <mxCell id="MP_MUvmoKOp5jrR6Ta0f-60" value="MODEL&lt;br&gt;vehicles.addRentCount(id_vehicle)" style="rounded=0;whiteSpace=wrap;html=1;" parent="MP_MUvmoKOp5jrR6Ta0f-1" vertex="1">
                    <mxGeometry x="550" y="2380" width="200" height="60" as="geometry"/>
                </mxCell>
                <mxCell id="MP_MUvmoKOp5jrR6Ta0f-62" value="rent_vehicles" style="shape=cylinder3;whiteSpace=wrap;html=1;boundedLbl=1;backgroundOutline=1;size=15;" parent="MP_MUvmoKOp5jrR6Ta0f-1" vertex="1">
                    <mxGeometry x="360" y="2370" width="110" height="80" as="geometry"/>
                </mxCell>
                <mxCell id="MP_MUvmoKOp5jrR6Ta0f-66" value="" style="edgeStyle=orthogonalEdgeStyle;rounded=0;orthogonalLoop=1;jettySize=auto;html=1;" parent="MP_MUvmoKOp5jrR6Ta0f-1" source="MP_MUvmoKOp5jrR6Ta0f-64" target="MP_MUvmoKOp5jrR6Ta0f-65" edge="1">
                    <mxGeometry relative="1" as="geometry"/>
                </mxCell>
                <mxCell id="MP_MUvmoKOp5jrR6Ta0f-69" value="" style="edgeStyle=orthogonalEdgeStyle;rounded=0;orthogonalLoop=1;jettySize=auto;html=1;" parent="MP_MUvmoKOp5jrR6Ta0f-1" source="MP_MUvmoKOp5jrR6Ta0f-64" target="MP_MUvmoKOp5jrR6Ta0f-68" edge="1">
                    <mxGeometry relative="1" as="geometry"/>
                </mxCell>
                <mxCell id="MP_MUvmoKOp5jrR6Ta0f-64" value="MODEL&lt;br&gt;histories.newHistory(results)" style="rounded=0;whiteSpace=wrap;html=1;" parent="MP_MUvmoKOp5jrR6Ta0f-1" vertex="1">
                    <mxGeometry x="570" y="2500" width="160" height="70" as="geometry"/>
                </mxCell>
                <mxCell id="MP_MUvmoKOp5jrR6Ta0f-65" value="rent_vehicles" style="shape=cylinder3;whiteSpace=wrap;html=1;boundedLbl=1;backgroundOutline=1;size=15;" parent="MP_MUvmoKOp5jrR6Ta0f-1" vertex="1">
                    <mxGeometry x="595" y="2610" width="110" height="80" as="geometry"/>
                </mxCell>
                <mxCell id="MP_MUvmoKOp5jrR6Ta0f-71" value="" style="edgeStyle=orthogonalEdgeStyle;rounded=0;orthogonalLoop=1;jettySize=auto;html=1;" parent="MP_MUvmoKOp5jrR6Ta0f-1" source="MP_MUvmoKOp5jrR6Ta0f-68" target="MP_MUvmoKOp5jrR6Ta0f-70" edge="1">
                    <mxGeometry relative="1" as="geometry"/>
                </mxCell>
                <mxCell id="MP_MUvmoKOp5jrR6Ta0f-68" value="success: true,&lt;br&gt;message: &quot;Successfully added new history&quot;,&lt;br&gt;results: results[0]" style="shape=parallelogram;perimeter=parallelogramPerimeter;whiteSpace=wrap;html=1;fixedSize=1;" parent="MP_MUvmoKOp5jrR6Ta0f-1" vertex="1">
                    <mxGeometry x="520" y="2740" width="260" height="60" as="geometry"/>
                </mxCell>
                <mxCell id="MP_MUvmoKOp5jrR6Ta0f-70" value="END" style="ellipse;whiteSpace=wrap;html=1;" parent="MP_MUvmoKOp5jrR6Ta0f-1" vertex="1">
                    <mxGeometry x="590" y="2870" width="120" height="80" as="geometry"/>
                </mxCell>
            </root>
        </mxGraphModel>
    </diagram>
    <diagram id="3STqGyuqI5FQJ-lZwWWE" name="edit history">
        <mxGraphModel dx="2414" dy="1158" grid="1" gridSize="10" guides="1" tooltips="1" connect="1" arrows="1" fold="1" page="1" pageScale="1" pageWidth="850" pageHeight="1100" math="0" shadow="0">
            <root>
                <mxCell id="41tdh6f9ecbBCBGQYiVe-0"/>
                <mxCell id="41tdh6f9ecbBCBGQYiVe-1" parent="41tdh6f9ecbBCBGQYiVe-0"/>
                <mxCell id="Zl7FfXu7vA16IZu5_h18-0" value="" style="edgeStyle=orthogonalEdgeStyle;rounded=0;orthogonalLoop=1;jettySize=auto;html=1;" parent="41tdh6f9ecbBCBGQYiVe-1" source="Zl7FfXu7vA16IZu5_h18-1" target="Zl7FfXu7vA16IZu5_h18-3" edge="1">
                    <mxGeometry relative="1" as="geometry"/>
                </mxCell>
                <mxCell id="Zl7FfXu7vA16IZu5_h18-1" value="START" style="ellipse;whiteSpace=wrap;html=1;" parent="41tdh6f9ecbBCBGQYiVe-1" vertex="1">
                    <mxGeometry x="210" y="80" width="120" height="80" as="geometry"/>
                </mxCell>
                <mxCell id="Zl7FfXu7vA16IZu5_h18-2" value="" style="edgeStyle=orthogonalEdgeStyle;rounded=0;orthogonalLoop=1;jettySize=auto;html=1;" parent="41tdh6f9ecbBCBGQYiVe-1" source="Zl7FfXu7vA16IZu5_h18-3" target="Zl7FfXu7vA16IZu5_h18-5" edge="1">
                    <mxGeometry relative="1" as="geometry"/>
                </mxCell>
                <mxCell id="Zl7FfXu7vA16IZu5_h18-3" value="id_user&lt;br&gt;id_vehicle&lt;br&gt;rent_start_date" style="shape=parallelogram;perimeter=parallelogramPerimeter;whiteSpace=wrap;html=1;fixedSize=1;" parent="41tdh6f9ecbBCBGQYiVe-1" vertex="1">
                    <mxGeometry x="210" y="210" width="120" height="60" as="geometry"/>
                </mxCell>
                <mxCell id="Zl7FfXu7vA16IZu5_h18-4" value="" style="edgeStyle=orthogonalEdgeStyle;rounded=0;orthogonalLoop=1;jettySize=auto;html=1;" parent="41tdh6f9ecbBCBGQYiVe-1" source="Zl7FfXu7vA16IZu5_h18-5" edge="1">
                    <mxGeometry relative="1" as="geometry">
                        <mxPoint x="270" y="450" as="targetPoint"/>
                    </mxGeometry>
                </mxCell>
                <mxCell id="Zl7FfXu7vA16IZu5_h18-5" value="rent_end_date&lt;br&gt;prepayment&lt;br&gt;status" style="shape=parallelogram;perimeter=parallelogramPerimeter;whiteSpace=wrap;html=1;fixedSize=1;" parent="41tdh6f9ecbBCBGQYiVe-1" vertex="1">
                    <mxGeometry x="210" y="340" width="120" height="60" as="geometry"/>
                </mxCell>
                <mxCell id="YacbkMYdb_9JD00U3ktI-0" value="FALSE" style="edgeStyle=orthogonalEdgeStyle;rounded=0;orthogonalLoop=1;jettySize=auto;html=1;" parent="41tdh6f9ecbBCBGQYiVe-1" source="YacbkMYdb_9JD00U3ktI-1" target="YacbkMYdb_9JD00U3ktI-3" edge="1">
                    <mxGeometry relative="1" as="geometry"/>
                </mxCell>
                <mxCell id="PYG2ZdfAClFVHcNe7rSS-3" value="TRUE" style="edgeStyle=orthogonalEdgeStyle;rounded=0;orthogonalLoop=1;jettySize=auto;html=1;" parent="41tdh6f9ecbBCBGQYiVe-1" source="YacbkMYdb_9JD00U3ktI-1" target="PYG2ZdfAClFVHcNe7rSS-1" edge="1">
                    <mxGeometry relative="1" as="geometry"/>
                </mxCell>
                <mxCell id="YacbkMYdb_9JD00U3ktI-1" value="id_user &amp;amp;&amp;amp; id_vehicle &amp;amp;&amp;amp; rent_start_date &amp;amp;&amp;amp; rent_end_date &amp;amp;&amp;amp; prepayment &amp;amp;&amp;amp; status" style="rhombus;whiteSpace=wrap;html=1;" parent="41tdh6f9ecbBCBGQYiVe-1" vertex="1">
                    <mxGeometry x="175" y="450" width="190" height="140" as="geometry"/>
                </mxCell>
                <mxCell id="YacbkMYdb_9JD00U3ktI-2" value="" style="edgeStyle=orthogonalEdgeStyle;rounded=0;orthogonalLoop=1;jettySize=auto;html=1;" parent="41tdh6f9ecbBCBGQYiVe-1" source="YacbkMYdb_9JD00U3ktI-3" edge="1">
                    <mxGeometry relative="1" as="geometry">
                        <mxPoint x="-170" y="520" as="targetPoint"/>
                    </mxGeometry>
                </mxCell>
                <mxCell id="YacbkMYdb_9JD00U3ktI-3" value="success: false,&lt;br&gt;message: `Failed edit history wtih id ${id}, data must be filled''," style="shape=parallelogram;perimeter=parallelogramPerimeter;whiteSpace=wrap;html=1;fixedSize=1;" parent="41tdh6f9ecbBCBGQYiVe-1" vertex="1">
                    <mxGeometry x="-110" y="480" width="200" height="80" as="geometry"/>
                </mxCell>
                <mxCell id="YacbkMYdb_9JD00U3ktI-4" value="END" style="ellipse;whiteSpace=wrap;html=1;" parent="41tdh6f9ecbBCBGQYiVe-1" vertex="1">
                    <mxGeometry x="-290" y="480" width="120" height="80" as="geometry"/>
                </mxCell>
                <mxCell id="PYG2ZdfAClFVHcNe7rSS-0" value="" style="edgeStyle=orthogonalEdgeStyle;rounded=0;orthogonalLoop=1;jettySize=auto;html=1;" parent="41tdh6f9ecbBCBGQYiVe-1" source="PYG2ZdfAClFVHcNe7rSS-1" target="PYG2ZdfAClFVHcNe7rSS-2" edge="1">
                    <mxGeometry relative="1" as="geometry"/>
                </mxCell>
                <mxCell id="sVIFoDamtlCk2_Li9ZiF-5" value="" style="edgeStyle=orthogonalEdgeStyle;rounded=0;orthogonalLoop=1;jettySize=auto;html=1;" parent="41tdh6f9ecbBCBGQYiVe-1" target="sVIFoDamtlCk2_Li9ZiF-1" edge="1">
                    <mxGeometry relative="1" as="geometry">
                        <mxPoint x="270" y="820" as="sourcePoint"/>
                    </mxGeometry>
                </mxCell>
                <mxCell id="PYG2ZdfAClFVHcNe7rSS-1" value="MODEL&lt;br&gt;users.getUser(id_user, user)" style="rounded=0;whiteSpace=wrap;html=1;" parent="41tdh6f9ecbBCBGQYiVe-1" vertex="1">
                    <mxGeometry x="200" y="680" width="140" height="60" as="geometry"/>
                </mxCell>
                <mxCell id="PYG2ZdfAClFVHcNe7rSS-2" value="rent_vehicles" style="shape=cylinder3;whiteSpace=wrap;html=1;boundedLbl=1;backgroundOutline=1;size=15;" parent="41tdh6f9ecbBCBGQYiVe-1" vertex="1">
                    <mxGeometry x="215" y="770" width="110" height="80" as="geometry"/>
                </mxCell>
                <mxCell id="sVIFoDamtlCk2_Li9ZiF-0" value="FALSE" style="edgeStyle=orthogonalEdgeStyle;rounded=0;orthogonalLoop=1;jettySize=auto;html=1;" parent="41tdh6f9ecbBCBGQYiVe-1" source="sVIFoDamtlCk2_Li9ZiF-1" target="sVIFoDamtlCk2_Li9ZiF-3" edge="1">
                    <mxGeometry relative="1" as="geometry"/>
                </mxCell>
                <mxCell id="JYg5A94Z1jtS4bo04-YX-3" value="TRUE" style="edgeStyle=orthogonalEdgeStyle;rounded=0;orthogonalLoop=1;jettySize=auto;html=1;" parent="41tdh6f9ecbBCBGQYiVe-1" source="sVIFoDamtlCk2_Li9ZiF-1" target="JYg5A94Z1jtS4bo04-YX-1" edge="1">
                    <mxGeometry relative="1" as="geometry"/>
                </mxCell>
                <mxCell id="sVIFoDamtlCk2_Li9ZiF-1" value="user.LENGTH &amp;gt; 0" style="rhombus;whiteSpace=wrap;html=1;" parent="41tdh6f9ecbBCBGQYiVe-1" vertex="1">
                    <mxGeometry x="215" y="880" width="110" height="90" as="geometry"/>
                </mxCell>
                <mxCell id="sVIFoDamtlCk2_Li9ZiF-2" value="" style="edgeStyle=orthogonalEdgeStyle;rounded=0;orthogonalLoop=1;jettySize=auto;html=1;" parent="41tdh6f9ecbBCBGQYiVe-1" source="sVIFoDamtlCk2_Li9ZiF-3" target="sVIFoDamtlCk2_Li9ZiF-4" edge="1">
                    <mxGeometry relative="1" as="geometry"/>
                </mxCell>
                <mxCell id="sVIFoDamtlCk2_Li9ZiF-3" value="success: false,&lt;br&gt;message: &quot;id_user is undifined&quot;" style="shape=parallelogram;perimeter=parallelogramPerimeter;whiteSpace=wrap;html=1;fixedSize=1;" parent="41tdh6f9ecbBCBGQYiVe-1" vertex="1">
                    <mxGeometry x="-20" y="895" width="150" height="60" as="geometry"/>
                </mxCell>
                <mxCell id="sVIFoDamtlCk2_Li9ZiF-4" value="END" style="ellipse;whiteSpace=wrap;html=1;" parent="41tdh6f9ecbBCBGQYiVe-1" vertex="1">
                    <mxGeometry x="-210" y="885" width="120" height="80" as="geometry"/>
                </mxCell>
                <mxCell id="JYg5A94Z1jtS4bo04-YX-0" value="" style="edgeStyle=orthogonalEdgeStyle;rounded=0;orthogonalLoop=1;jettySize=auto;html=1;" parent="41tdh6f9ecbBCBGQYiVe-1" source="JYg5A94Z1jtS4bo04-YX-1" target="JYg5A94Z1jtS4bo04-YX-2" edge="1">
                    <mxGeometry relative="1" as="geometry"/>
                </mxCell>
                <mxCell id="5tfOSZ_SHVyPareYIkvi-5" value="" style="edgeStyle=orthogonalEdgeStyle;rounded=0;orthogonalLoop=1;jettySize=auto;html=1;" parent="41tdh6f9ecbBCBGQYiVe-1" target="5tfOSZ_SHVyPareYIkvi-1" edge="1">
                    <mxGeometry relative="1" as="geometry">
                        <mxPoint x="270" y="1240" as="sourcePoint"/>
                    </mxGeometry>
                </mxCell>
                <mxCell id="JYg5A94Z1jtS4bo04-YX-1" value="MODEL&lt;br&gt;vehicles.getVehicle(id_vehicle, vehicle)" style="rounded=0;whiteSpace=wrap;html=1;" parent="41tdh6f9ecbBCBGQYiVe-1" vertex="1">
                    <mxGeometry x="180" y="1045" width="180" height="70" as="geometry"/>
                </mxCell>
                <mxCell id="JYg5A94Z1jtS4bo04-YX-2" value="rent_vehicles" style="shape=cylinder3;whiteSpace=wrap;html=1;boundedLbl=1;backgroundOutline=1;size=15;" parent="41tdh6f9ecbBCBGQYiVe-1" vertex="1">
                    <mxGeometry x="215" y="1180" width="110" height="80" as="geometry"/>
                </mxCell>
                <mxCell id="5tfOSZ_SHVyPareYIkvi-0" value="FALSE" style="edgeStyle=orthogonalEdgeStyle;rounded=0;orthogonalLoop=1;jettySize=auto;html=1;" parent="41tdh6f9ecbBCBGQYiVe-1" source="5tfOSZ_SHVyPareYIkvi-1" target="5tfOSZ_SHVyPareYIkvi-3" edge="1">
                    <mxGeometry relative="1" as="geometry"/>
                </mxCell>
                <mxCell id="_FLsgA_2pknDK9uvboNt-6" value="TRUE" style="edgeStyle=orthogonalEdgeStyle;rounded=0;orthogonalLoop=1;jettySize=auto;html=1;" parent="41tdh6f9ecbBCBGQYiVe-1" source="5tfOSZ_SHVyPareYIkvi-1" target="_FLsgA_2pknDK9uvboNt-5" edge="1">
                    <mxGeometry relative="1" as="geometry"/>
                </mxCell>
                <mxCell id="5tfOSZ_SHVyPareYIkvi-1" value="vehicle.LENGTH &amp;gt; 0" style="rhombus;whiteSpace=wrap;html=1;" parent="41tdh6f9ecbBCBGQYiVe-1" vertex="1">
                    <mxGeometry x="210" y="1315" width="120" height="90" as="geometry"/>
                </mxCell>
                <mxCell id="5tfOSZ_SHVyPareYIkvi-2" value="" style="edgeStyle=orthogonalEdgeStyle;rounded=0;orthogonalLoop=1;jettySize=auto;html=1;" parent="41tdh6f9ecbBCBGQYiVe-1" source="5tfOSZ_SHVyPareYIkvi-3" target="5tfOSZ_SHVyPareYIkvi-4" edge="1">
                    <mxGeometry relative="1" as="geometry"/>
                </mxCell>
                <mxCell id="5tfOSZ_SHVyPareYIkvi-3" value="success: false,&lt;br&gt;message: &quot;id_vehicle is undifined&quot;" style="shape=parallelogram;perimeter=parallelogramPerimeter;whiteSpace=wrap;html=1;fixedSize=1;" parent="41tdh6f9ecbBCBGQYiVe-1" vertex="1">
                    <mxGeometry x="-30" y="1330" width="150" height="60" as="geometry"/>
                </mxCell>
                <mxCell id="5tfOSZ_SHVyPareYIkvi-4" value="END" style="ellipse;whiteSpace=wrap;html=1;" parent="41tdh6f9ecbBCBGQYiVe-1" vertex="1">
                    <mxGeometry x="-200" y="1320" width="120" height="80" as="geometry"/>
                </mxCell>
                <mxCell id="_FLsgA_2pknDK9uvboNt-0" value="FALSE" style="edgeStyle=orthogonalEdgeStyle;rounded=0;orthogonalLoop=1;jettySize=auto;html=1;" parent="41tdh6f9ecbBCBGQYiVe-1" source="_FLsgA_2pknDK9uvboNt-1" target="_FLsgA_2pknDK9uvboNt-3" edge="1">
                    <mxGeometry relative="1" as="geometry"/>
                </mxCell>
                <mxCell id="gcj5Er_qCRCKchPvXzxn-7" value="TRUE" style="edgeStyle=orthogonalEdgeStyle;rounded=0;orthogonalLoop=1;jettySize=auto;html=1;" parent="41tdh6f9ecbBCBGQYiVe-1" source="_FLsgA_2pknDK9uvboNt-1" target="gcj5Er_qCRCKchPvXzxn-1" edge="1">
                    <mxGeometry relative="1" as="geometry"/>
                </mxCell>
                <mxCell id="_FLsgA_2pknDK9uvboNt-1" value="!pola.TEST(prepayment)" style="rhombus;whiteSpace=wrap;html=1;" parent="41tdh6f9ecbBCBGQYiVe-1" vertex="1">
                    <mxGeometry x="195" y="1585" width="150" height="110" as="geometry"/>
                </mxCell>
                <mxCell id="_FLsgA_2pknDK9uvboNt-2" value="" style="edgeStyle=orthogonalEdgeStyle;rounded=0;orthogonalLoop=1;jettySize=auto;html=1;" parent="41tdh6f9ecbBCBGQYiVe-1" source="_FLsgA_2pknDK9uvboNt-3" target="_FLsgA_2pknDK9uvboNt-4" edge="1">
                    <mxGeometry relative="1" as="geometry"/>
                </mxCell>
                <mxCell id="_FLsgA_2pknDK9uvboNt-3" value="status: false,&lt;br&gt;message: &quot;prepayment must be number&quot;" style="shape=parallelogram;perimeter=parallelogramPerimeter;whiteSpace=wrap;html=1;fixedSize=1;" parent="41tdh6f9ecbBCBGQYiVe-1" vertex="1">
                    <mxGeometry x="-100" y="1610" width="200" height="60" as="geometry"/>
                </mxCell>
                <mxCell id="_FLsgA_2pknDK9uvboNt-4" value="END" style="ellipse;whiteSpace=wrap;html=1;" parent="41tdh6f9ecbBCBGQYiVe-1" vertex="1">
                    <mxGeometry x="-290" y="1600" width="120" height="80" as="geometry"/>
                </mxCell>
                <mxCell id="_FLsgA_2pknDK9uvboNt-7" value="" style="edgeStyle=orthogonalEdgeStyle;rounded=0;orthogonalLoop=1;jettySize=auto;html=1;" parent="41tdh6f9ecbBCBGQYiVe-1" source="_FLsgA_2pknDK9uvboNt-5" target="_FLsgA_2pknDK9uvboNt-1" edge="1">
                    <mxGeometry relative="1" as="geometry"/>
                </mxCell>
                <mxCell id="_FLsgA_2pknDK9uvboNt-5" value="pola = /\D/g" style="rounded=0;whiteSpace=wrap;html=1;" parent="41tdh6f9ecbBCBGQYiVe-1" vertex="1">
                    <mxGeometry x="210" y="1465" width="120" height="60" as="geometry"/>
                </mxCell>
                <mxCell id="gcj5Er_qCRCKchPvXzxn-0" value="" style="edgeStyle=orthogonalEdgeStyle;rounded=0;orthogonalLoop=1;jettySize=auto;html=1;" parent="41tdh6f9ecbBCBGQYiVe-1" source="gcj5Er_qCRCKchPvXzxn-1" target="gcj5Er_qCRCKchPvXzxn-3" edge="1">
                    <mxGeometry relative="1" as="geometry"/>
                </mxCell>
                <mxCell id="gcj5Er_qCRCKchPvXzxn-1" value="HELPER&lt;br&gt;checkDate(date)" style="rounded=0;whiteSpace=wrap;html=1;" parent="41tdh6f9ecbBCBGQYiVe-1" vertex="1">
                    <mxGeometry x="210" y="1775" width="120" height="60" as="geometry"/>
                </mxCell>
                <mxCell id="gcj5Er_qCRCKchPvXzxn-2" value="FALSE" style="edgeStyle=orthogonalEdgeStyle;rounded=0;orthogonalLoop=1;jettySize=auto;html=1;" parent="41tdh6f9ecbBCBGQYiVe-1" source="gcj5Er_qCRCKchPvXzxn-3" target="gcj5Er_qCRCKchPvXzxn-5" edge="1">
                    <mxGeometry relative="1" as="geometry"/>
                </mxCell>
                <mxCell id="gcj5Er_qCRCKchPvXzxn-9" value="TRUE" style="edgeStyle=orthogonalEdgeStyle;rounded=0;orthogonalLoop=1;jettySize=auto;html=1;" parent="41tdh6f9ecbBCBGQYiVe-1" source="gcj5Er_qCRCKchPvXzxn-3" target="gcj5Er_qCRCKchPvXzxn-8" edge="1">
                    <mxGeometry relative="1" as="geometry"/>
                </mxCell>
                <mxCell id="gcj5Er_qCRCKchPvXzxn-3" value="checkDate(rent_start_date) &amp;amp;&amp;amp; checkDate(rent_end_date)" style="rhombus;whiteSpace=wrap;html=1;" parent="41tdh6f9ecbBCBGQYiVe-1" vertex="1">
                    <mxGeometry x="180" y="1895" width="180" height="130" as="geometry"/>
                </mxCell>
                <mxCell id="gcj5Er_qCRCKchPvXzxn-4" value="" style="edgeStyle=orthogonalEdgeStyle;rounded=0;orthogonalLoop=1;jettySize=auto;html=1;" parent="41tdh6f9ecbBCBGQYiVe-1" source="gcj5Er_qCRCKchPvXzxn-5" target="gcj5Er_qCRCKchPvXzxn-6" edge="1">
                    <mxGeometry relative="1" as="geometry"/>
                </mxCell>
                <mxCell id="gcj5Er_qCRCKchPvXzxn-5" value="status: false,&lt;br&gt;message: ''Wrong date input for rent_start_date and rent_end_date. Format date YYYY-MM-DD''," style="shape=parallelogram;perimeter=parallelogramPerimeter;whiteSpace=wrap;html=1;fixedSize=1;" parent="41tdh6f9ecbBCBGQYiVe-1" vertex="1">
                    <mxGeometry x="-180" y="1920" width="250" height="80" as="geometry"/>
                </mxCell>
                <mxCell id="gcj5Er_qCRCKchPvXzxn-6" value="END" style="ellipse;whiteSpace=wrap;html=1;" parent="41tdh6f9ecbBCBGQYiVe-1" vertex="1">
                    <mxGeometry x="-350" y="1920" width="120" height="80" as="geometry"/>
                </mxCell>
                <mxCell id="gcj5Er_qCRCKchPvXzxn-11" value="" style="edgeStyle=orthogonalEdgeStyle;rounded=0;orthogonalLoop=1;jettySize=auto;html=1;" parent="41tdh6f9ecbBCBGQYiVe-1" source="gcj5Er_qCRCKchPvXzxn-8" target="gcj5Er_qCRCKchPvXzxn-10" edge="1">
                    <mxGeometry relative="1" as="geometry"/>
                </mxCell>
                <mxCell id="gcj5Er_qCRCKchPvXzxn-8" value="notReturned = &quot;not been returned&quot;&lt;br&gt;returned = &quot;has been returned&quot;" style="rounded=0;whiteSpace=wrap;html=1;" parent="41tdh6f9ecbBCBGQYiVe-1" vertex="1">
                    <mxGeometry x="175" y="2095" width="190" height="60" as="geometry"/>
                </mxCell>
                <mxCell id="gcj5Er_qCRCKchPvXzxn-13" value="FALSE" style="edgeStyle=orthogonalEdgeStyle;rounded=0;orthogonalLoop=1;jettySize=auto;html=1;" parent="41tdh6f9ecbBCBGQYiVe-1" source="gcj5Er_qCRCKchPvXzxn-10" target="gcj5Er_qCRCKchPvXzxn-12" edge="1">
                    <mxGeometry relative="1" as="geometry"/>
                </mxCell>
                <mxCell id="gcj5Er_qCRCKchPvXzxn-17" value="TRUE" style="edgeStyle=orthogonalEdgeStyle;rounded=0;orthogonalLoop=1;jettySize=auto;html=1;" parent="41tdh6f9ecbBCBGQYiVe-1" source="gcj5Er_qCRCKchPvXzxn-10" target="gcj5Er_qCRCKchPvXzxn-16" edge="1">
                    <mxGeometry relative="1" as="geometry"/>
                </mxCell>
                <mxCell id="gcj5Er_qCRCKchPvXzxn-10" value="status.toLowerCase() === notReturned || status.toLowerCase() === returned" style="rhombus;whiteSpace=wrap;html=1;" parent="41tdh6f9ecbBCBGQYiVe-1" vertex="1">
                    <mxGeometry x="145" y="2225" width="250" height="120" as="geometry"/>
                </mxCell>
                <mxCell id="gcj5Er_qCRCKchPvXzxn-15" value="" style="edgeStyle=orthogonalEdgeStyle;rounded=0;orthogonalLoop=1;jettySize=auto;html=1;" parent="41tdh6f9ecbBCBGQYiVe-1" source="gcj5Er_qCRCKchPvXzxn-12" target="gcj5Er_qCRCKchPvXzxn-14" edge="1">
                    <mxGeometry relative="1" as="geometry"/>
                </mxCell>
                <mxCell id="gcj5Er_qCRCKchPvXzxn-12" value="success: false,&lt;br&gt;message: `Failed to edit histories, status must be one of '${notReturned}' / '${returned}'`," style="shape=parallelogram;perimeter=parallelogramPerimeter;whiteSpace=wrap;html=1;fixedSize=1;" parent="41tdh6f9ecbBCBGQYiVe-1" vertex="1">
                    <mxGeometry x="-210" y="2245" width="260" height="80" as="geometry"/>
                </mxCell>
                <mxCell id="gcj5Er_qCRCKchPvXzxn-14" value="END" style="ellipse;whiteSpace=wrap;html=1;" parent="41tdh6f9ecbBCBGQYiVe-1" vertex="1">
                    <mxGeometry x="-410" y="2245" width="120" height="80" as="geometry"/>
                </mxCell>
                <mxCell id="gcj5Er_qCRCKchPvXzxn-19" value="" style="edgeStyle=orthogonalEdgeStyle;rounded=0;orthogonalLoop=1;jettySize=auto;html=1;" parent="41tdh6f9ecbBCBGQYiVe-1" source="gcj5Er_qCRCKchPvXzxn-16" target="gcj5Er_qCRCKchPvXzxn-18" edge="1">
                    <mxGeometry relative="1" as="geometry"/>
                </mxCell>
                <mxCell id="gcj5Er_qCRCKchPvXzxn-16" value="data = {id_user, id_vehicle, rent_start_date, rent_end_date, prepayment, status,}" style="rounded=0;whiteSpace=wrap;html=1;" parent="41tdh6f9ecbBCBGQYiVe-1" vertex="1">
                    <mxGeometry x="150" y="2435" width="240" height="70" as="geometry"/>
                </mxCell>
                <mxCell id="gcj5Er_qCRCKchPvXzxn-21" value="" style="edgeStyle=orthogonalEdgeStyle;rounded=0;orthogonalLoop=1;jettySize=auto;html=1;" parent="41tdh6f9ecbBCBGQYiVe-1" target="gcj5Er_qCRCKchPvXzxn-20" edge="1">
                    <mxGeometry relative="1" as="geometry">
                        <mxPoint x="270" y="2760" as="sourcePoint"/>
                    </mxGeometry>
                </mxCell>
                <mxCell id="gcj5Er_qCRCKchPvXzxn-27" style="edgeStyle=orthogonalEdgeStyle;rounded=0;orthogonalLoop=1;jettySize=auto;html=1;entryX=0.5;entryY=0;entryDx=0;entryDy=0;entryPerimeter=0;" parent="41tdh6f9ecbBCBGQYiVe-1" source="gcj5Er_qCRCKchPvXzxn-18" target="gcj5Er_qCRCKchPvXzxn-26" edge="1">
                    <mxGeometry relative="1" as="geometry"/>
                </mxCell>
                <mxCell id="gcj5Er_qCRCKchPvXzxn-18" value="MODEL&lt;br&gt;histories.editHistory(data, id, results)" style="rounded=0;whiteSpace=wrap;html=1;" parent="41tdh6f9ecbBCBGQYiVe-1" vertex="1">
                    <mxGeometry x="190" y="2575" width="160" height="60" as="geometry"/>
                </mxCell>
                <mxCell id="gcj5Er_qCRCKchPvXzxn-23" value="FALSE" style="edgeStyle=orthogonalEdgeStyle;rounded=0;orthogonalLoop=1;jettySize=auto;html=1;" parent="41tdh6f9ecbBCBGQYiVe-1" source="gcj5Er_qCRCKchPvXzxn-20" target="gcj5Er_qCRCKchPvXzxn-22" edge="1">
                    <mxGeometry relative="1" as="geometry"/>
                </mxCell>
                <mxCell id="gcj5Er_qCRCKchPvXzxn-29" value="TRUE" style="edgeStyle=orthogonalEdgeStyle;rounded=0;orthogonalLoop=1;jettySize=auto;html=1;" parent="41tdh6f9ecbBCBGQYiVe-1" source="gcj5Er_qCRCKchPvXzxn-20" target="gcj5Er_qCRCKchPvXzxn-28" edge="1">
                    <mxGeometry relative="1" as="geometry"/>
                </mxCell>
                <mxCell id="gcj5Er_qCRCKchPvXzxn-20" value="results.changedRows &amp;gt; 0" style="rhombus;whiteSpace=wrap;html=1;" parent="41tdh6f9ecbBCBGQYiVe-1" vertex="1">
                    <mxGeometry x="195" y="2830" width="150" height="90" as="geometry"/>
                </mxCell>
                <mxCell id="gcj5Er_qCRCKchPvXzxn-25" value="" style="edgeStyle=orthogonalEdgeStyle;rounded=0;orthogonalLoop=1;jettySize=auto;html=1;" parent="41tdh6f9ecbBCBGQYiVe-1" source="gcj5Er_qCRCKchPvXzxn-22" target="gcj5Er_qCRCKchPvXzxn-24" edge="1">
                    <mxGeometry relative="1" as="geometry"/>
                </mxCell>
                <mxCell id="gcj5Er_qCRCKchPvXzxn-22" value="success: false,&lt;br&gt;message: `Failed to edit history with id ${id}. Data has not changed`," style="shape=parallelogram;perimeter=parallelogramPerimeter;whiteSpace=wrap;html=1;fixedSize=1;" parent="41tdh6f9ecbBCBGQYiVe-1" vertex="1">
                    <mxGeometry x="-125" y="2845" width="230" height="60" as="geometry"/>
                </mxCell>
                <mxCell id="gcj5Er_qCRCKchPvXzxn-24" value="END" style="ellipse;whiteSpace=wrap;html=1;" parent="41tdh6f9ecbBCBGQYiVe-1" vertex="1">
                    <mxGeometry x="-340" y="2835" width="120" height="80" as="geometry"/>
                </mxCell>
                <mxCell id="gcj5Er_qCRCKchPvXzxn-26" value="rent_vehicles" style="shape=cylinder3;whiteSpace=wrap;html=1;boundedLbl=1;backgroundOutline=1;size=15;" parent="41tdh6f9ecbBCBGQYiVe-1" vertex="1">
                    <mxGeometry x="215" y="2690" width="110" height="80" as="geometry"/>
                </mxCell>
                <mxCell id="gcj5Er_qCRCKchPvXzxn-31" value="" style="edgeStyle=orthogonalEdgeStyle;rounded=0;orthogonalLoop=1;jettySize=auto;html=1;" parent="41tdh6f9ecbBCBGQYiVe-1" target="gcj5Er_qCRCKchPvXzxn-30" edge="1">
                    <mxGeometry relative="1" as="geometry">
                        <mxPoint x="275" y="3140" as="sourcePoint"/>
                    </mxGeometry>
                </mxCell>
                <mxCell id="gcj5Er_qCRCKchPvXzxn-35" value="" style="edgeStyle=orthogonalEdgeStyle;rounded=0;orthogonalLoop=1;jettySize=auto;html=1;" parent="41tdh6f9ecbBCBGQYiVe-1" source="gcj5Er_qCRCKchPvXzxn-28" target="gcj5Er_qCRCKchPvXzxn-34" edge="1">
                    <mxGeometry relative="1" as="geometry"/>
                </mxCell>
                <mxCell id="gcj5Er_qCRCKchPvXzxn-28" value="MODEL&lt;br&gt;histories.getHistory(id, rslt)" style="rounded=0;whiteSpace=wrap;html=1;" parent="41tdh6f9ecbBCBGQYiVe-1" vertex="1">
                    <mxGeometry x="200" y="2990" width="140" height="60" as="geometry"/>
                </mxCell>
                <mxCell id="gcj5Er_qCRCKchPvXzxn-33" value="" style="edgeStyle=orthogonalEdgeStyle;rounded=0;orthogonalLoop=1;jettySize=auto;html=1;" parent="41tdh6f9ecbBCBGQYiVe-1" source="gcj5Er_qCRCKchPvXzxn-30" target="gcj5Er_qCRCKchPvXzxn-32" edge="1">
                    <mxGeometry relative="1" as="geometry"/>
                </mxCell>
                <mxCell id="gcj5Er_qCRCKchPvXzxn-30" value="success: true,&lt;br&gt;message: &quot;Edited successfully&quot;,&lt;br&gt;results: rslt" style="shape=parallelogram;perimeter=parallelogramPerimeter;whiteSpace=wrap;html=1;fixedSize=1;" parent="41tdh6f9ecbBCBGQYiVe-1" vertex="1">
                    <mxGeometry x="175" y="3200" width="200" height="60" as="geometry"/>
                </mxCell>
                <mxCell id="gcj5Er_qCRCKchPvXzxn-32" value="END" style="ellipse;whiteSpace=wrap;html=1;" parent="41tdh6f9ecbBCBGQYiVe-1" vertex="1">
                    <mxGeometry x="215" y="3330" width="120" height="80" as="geometry"/>
                </mxCell>
                <mxCell id="gcj5Er_qCRCKchPvXzxn-34" value="rent_vehicles" style="shape=cylinder3;whiteSpace=wrap;html=1;boundedLbl=1;backgroundOutline=1;size=15;" parent="41tdh6f9ecbBCBGQYiVe-1" vertex="1">
                    <mxGeometry x="215" y="3080" width="110" height="80" as="geometry"/>
                </mxCell>
            </root>
        </mxGraphModel>
    </diagram>
    <diagram id="Y7O21JHL0kMJ4tjK4DPd" name="delete history">
        <mxGraphModel dx="1632" dy="579" grid="1" gridSize="10" guides="1" tooltips="1" connect="1" arrows="1" fold="1" page="1" pageScale="1" pageWidth="850" pageHeight="1100" math="0" shadow="0">
            <root>
                <mxCell id="fy_BF1GjuIOxWUTWviVT-0"/>
                <mxCell id="fy_BF1GjuIOxWUTWviVT-1" parent="fy_BF1GjuIOxWUTWviVT-0"/>
                <mxCell id="fy_BF1GjuIOxWUTWviVT-4" value="" style="edgeStyle=orthogonalEdgeStyle;rounded=0;orthogonalLoop=1;jettySize=auto;html=1;" parent="fy_BF1GjuIOxWUTWviVT-1" source="fy_BF1GjuIOxWUTWviVT-2" target="fy_BF1GjuIOxWUTWviVT-3" edge="1">
                    <mxGeometry relative="1" as="geometry"/>
                </mxCell>
                <mxCell id="fy_BF1GjuIOxWUTWviVT-2" value="START" style="ellipse;whiteSpace=wrap;html=1;" parent="fy_BF1GjuIOxWUTWviVT-1" vertex="1">
                    <mxGeometry x="410" y="50" width="120" height="80" as="geometry"/>
                </mxCell>
                <mxCell id="fy_BF1GjuIOxWUTWviVT-6" value="" style="edgeStyle=orthogonalEdgeStyle;rounded=0;orthogonalLoop=1;jettySize=auto;html=1;" parent="fy_BF1GjuIOxWUTWviVT-1" source="fy_BF1GjuIOxWUTWviVT-3" edge="1">
                    <mxGeometry relative="1" as="geometry">
                        <mxPoint x="470" y="310" as="targetPoint"/>
                    </mxGeometry>
                </mxCell>
                <mxCell id="fy_BF1GjuIOxWUTWviVT-3" value="id" style="shape=parallelogram;perimeter=parallelogramPerimeter;whiteSpace=wrap;html=1;fixedSize=1;" parent="fy_BF1GjuIOxWUTWviVT-1" vertex="1">
                    <mxGeometry x="410" y="190" width="120" height="60" as="geometry"/>
                </mxCell>
                <mxCell id="fy_BF1GjuIOxWUTWviVT-10" value="" style="edgeStyle=orthogonalEdgeStyle;rounded=0;orthogonalLoop=1;jettySize=auto;html=1;" parent="fy_BF1GjuIOxWUTWviVT-1" target="fy_BF1GjuIOxWUTWviVT-9" edge="1">
                    <mxGeometry relative="1" as="geometry">
                        <mxPoint x="470" y="510" as="sourcePoint"/>
                    </mxGeometry>
                </mxCell>
                <mxCell id="inhr1M78ZLRO_JEsYiSC-2" value="" style="edgeStyle=orthogonalEdgeStyle;rounded=0;orthogonalLoop=1;jettySize=auto;html=1;" edge="1" parent="fy_BF1GjuIOxWUTWviVT-1" source="fy_BF1GjuIOxWUTWviVT-8" target="inhr1M78ZLRO_JEsYiSC-1">
                    <mxGeometry relative="1" as="geometry"/>
                </mxCell>
                <mxCell id="fy_BF1GjuIOxWUTWviVT-8" value="&lt;span style=&quot;color: rgb(0 , 0 , 0) ; font-family: &amp;#34;helvetica&amp;#34; ; font-size: 12px ; font-style: normal ; font-weight: 400 ; letter-spacing: normal ; text-align: center ; text-indent: 0px ; text-transform: none ; word-spacing: 0px ; background-color: rgb(248 , 249 , 250) ; display: inline ; float: none&quot;&gt;MODEL&lt;/span&gt;&lt;br style=&quot;color: rgb(0 , 0 , 0) ; font-family: &amp;#34;helvetica&amp;#34; ; font-size: 12px ; font-style: normal ; font-weight: 400 ; letter-spacing: normal ; text-align: center ; text-indent: 0px ; text-transform: none ; word-spacing: 0px ; background-color: rgb(248 , 249 , 250)&quot;&gt;&lt;span style=&quot;color: rgb(0 , 0 , 0) ; font-family: &amp;#34;helvetica&amp;#34; ; font-size: 12px ; font-style: normal ; font-weight: 400 ; letter-spacing: normal ; text-align: center ; text-indent: 0px ; text-transform: none ; word-spacing: 0px ; background-color: rgb(248 , 249 , 250) ; display: inline ; float: none&quot;&gt;histories.getHistory(id, historyDeleted)&lt;br&gt;&lt;/span&gt;histories.deleteHistory(id, results)" style="rounded=0;whiteSpace=wrap;html=1;" parent="fy_BF1GjuIOxWUTWviVT-1" vertex="1">
                    <mxGeometry x="365" y="310" width="210" height="60" as="geometry"/>
                </mxCell>
                <mxCell id="fy_BF1GjuIOxWUTWviVT-12" value="FALSE" style="edgeStyle=orthogonalEdgeStyle;rounded=0;orthogonalLoop=1;jettySize=auto;html=1;" parent="fy_BF1GjuIOxWUTWviVT-1" source="fy_BF1GjuIOxWUTWviVT-9" target="fy_BF1GjuIOxWUTWviVT-11" edge="1">
                    <mxGeometry relative="1" as="geometry"/>
                </mxCell>
                <mxCell id="fy_BF1GjuIOxWUTWviVT-16" value="" style="edgeStyle=orthogonalEdgeStyle;rounded=0;orthogonalLoop=1;jettySize=auto;html=1;" parent="fy_BF1GjuIOxWUTWviVT-1" source="fy_BF1GjuIOxWUTWviVT-9" target="fy_BF1GjuIOxWUTWviVT-15" edge="1">
                    <mxGeometry relative="1" as="geometry"/>
                </mxCell>
                <mxCell id="fy_BF1GjuIOxWUTWviVT-9" value="results.affectedRows &amp;gt; 0" style="rhombus;whiteSpace=wrap;html=1;" parent="fy_BF1GjuIOxWUTWviVT-1" vertex="1">
                    <mxGeometry x="395" y="570" width="150" height="100" as="geometry"/>
                </mxCell>
                <mxCell id="fy_BF1GjuIOxWUTWviVT-14" value="" style="edgeStyle=orthogonalEdgeStyle;rounded=0;orthogonalLoop=1;jettySize=auto;html=1;" parent="fy_BF1GjuIOxWUTWviVT-1" source="fy_BF1GjuIOxWUTWviVT-11" target="fy_BF1GjuIOxWUTWviVT-13" edge="1">
                    <mxGeometry relative="1" as="geometry"/>
                </mxCell>
                <mxCell id="fy_BF1GjuIOxWUTWviVT-11" value="success: false,&lt;br&gt;message: `Failed to delete history with id ${id}`," style="shape=parallelogram;perimeter=parallelogramPerimeter;whiteSpace=wrap;html=1;fixedSize=1;" parent="fy_BF1GjuIOxWUTWviVT-1" vertex="1">
                    <mxGeometry x="70" y="585" width="250" height="70" as="geometry"/>
                </mxCell>
                <mxCell id="fy_BF1GjuIOxWUTWviVT-13" value="END" style="ellipse;whiteSpace=wrap;html=1;" parent="fy_BF1GjuIOxWUTWviVT-1" vertex="1">
                    <mxGeometry x="-100" y="580" width="120" height="80" as="geometry"/>
                </mxCell>
                <mxCell id="fy_BF1GjuIOxWUTWviVT-18" value="" style="edgeStyle=orthogonalEdgeStyle;rounded=0;orthogonalLoop=1;jettySize=auto;html=1;" parent="fy_BF1GjuIOxWUTWviVT-1" source="fy_BF1GjuIOxWUTWviVT-15" target="fy_BF1GjuIOxWUTWviVT-17" edge="1">
                    <mxGeometry relative="1" as="geometry"/>
                </mxCell>
                <mxCell id="fy_BF1GjuIOxWUTWviVT-15" value="success: true,&lt;br&gt;message: `History with id ${id} successfully deleted`,&lt;br&gt;results: historyDeleted[0]" style="shape=parallelogram;perimeter=parallelogramPerimeter;whiteSpace=wrap;html=1;fixedSize=1;" parent="fy_BF1GjuIOxWUTWviVT-1" vertex="1">
                    <mxGeometry x="320" y="740" width="300" height="60" as="geometry"/>
                </mxCell>
                <mxCell id="fy_BF1GjuIOxWUTWviVT-17" value="END" style="ellipse;whiteSpace=wrap;html=1;" parent="fy_BF1GjuIOxWUTWviVT-1" vertex="1">
                    <mxGeometry x="410" y="870" width="120" height="80" as="geometry"/>
                </mxCell>
                <mxCell id="inhr1M78ZLRO_JEsYiSC-1" value="rent_vehicles" style="shape=cylinder3;whiteSpace=wrap;html=1;boundedLbl=1;backgroundOutline=1;size=15;" vertex="1" parent="fy_BF1GjuIOxWUTWviVT-1">
                    <mxGeometry x="415" y="430" width="110" height="80" as="geometry"/>
                </mxCell>
            </root>
        </mxGraphModel>
    </diagram>
</mxfile>